<?xml version="1.0" encoding="UTF-8" standalone="no"?>
<!-- Created with Inkscape (http://www.inkscape.org/) -->

<svg
   xmlns:dc="http://purl.org/dc/elements/1.1/"
   xmlns:cc="http://creativecommons.org/ns#"
   xmlns:rdf="http://www.w3.org/1999/02/22-rdf-syntax-ns#"
   xmlns:svg="http://www.w3.org/2000/svg"
   xmlns="http://www.w3.org/2000/svg"
   xmlns:sodipodi="http://sodipodi.sourceforge.net/DTD/sodipodi-0.dtd"
   xmlns:inkscape="http://www.inkscape.org/namespaces/inkscape"
   width="1200"
   height="630"
   viewBox="0 0 1200.0001 630.00001"
   id="svg2"
   version="1.1"
   inkscape:version="0.91 r13725"
   sodipodi:docname="featured-site.svg"
   inkscape:export-filename="C:\Users\fferegrino\Documents\GitHub\Blogs\that-c-sharp-guy\assets\logo\featured-site.png"
   inkscape:export-xdpi="90"
   inkscape:export-ydpi="90">
  <defs
     id="defs4" />
  <sodipodi:namedview
     id="base"
     pagecolor="#ffffff"
     bordercolor="#666666"
     borderopacity="1.0"
     inkscape:pageopacity="0.0"
     inkscape:pageshadow="2"
     inkscape:zoom="0.70710678"
     inkscape:cx="523.92091"
     inkscape:cy="282.99746"
     inkscape:document-units="px"
     inkscape:current-layer="layer3"
     showgrid="false"
     units="px"
     inkscape:window-width="1366"
     inkscape:window-height="715"
     inkscape:window-x="-8"
     inkscape:window-y="-8"
     inkscape:window-maximized="1"
     showguides="true"
     inkscape:guide-bbox="true" />
  <metadata
     id="metadata7">
    <rdf:RDF>
      <cc:Work
         rdf:about="">
        <dc:format>image/svg+xml</dc:format>
        <dc:type
           rdf:resource="http://purl.org/dc/dcmitype/StillImage" />
        <dc:title />
      </cc:Work>
    </rdf:RDF>
  </metadata>
  <g
     inkscape:label="Gray background"
     inkscape:groupmode="layer"
     id="layer1"
     transform="translate(0,-422.36232)"
     style="display:inline">
    <rect
       style="opacity:1;fill:#eeeef2;fill-opacity:1"
       id="rect4697"
       width="1200.0001"
       height="430.00006"
       x="0"
       y="422.36227" />
  </g>
  <g
     inkscape:groupmode="layer"
     id="layer5"
     inkscape:label="Detail"
     style="display:inline">
    <g
       style="display:inline"
       transform="matrix(0.45241006,0,0,0.45241006,5.0301978,160.75345)"
       id="g5254">
      <rect
         y="-512.63385"
         x="325.2886"
         height="8.1252279"
         width="389.1619"
         id="rect5305"
         style="display:inline;opacity:1;fill:#000000;fill-opacity:1"
         transform="matrix(0,1,-1,0,0,0)" />
      <g
         id="g5307">
        <rect
           style="display:inline;opacity:1;fill:#ffffff;fill-opacity:1"
           id="rect4696"
           width="100.68915"
           height="100.68915"
           x="458.22687"
           y="299.16043" />
        <path
           style="display:inline;opacity:1;fill:#000000;fill-opacity:1"
           d="m 465.24433,306.17789 0,86.66557 86.66555,0 0,-86.66557 -86.66555,0 z m 6.9987,6.9987 72.64846,0 0,72.64847 -72.64846,0 0,-72.64847 z"
           id="rect4698"
           inkscape:connector-curvature="0" />
        <rect
           y="345.44235"
           x="484.35489"
           height="8.1252279"
           width="48.432751"
           id="rect4703-9"
           style="display:inline;opacity:1;fill:#000000;fill-opacity:1" />
      </g>
    </g>
  </g>
  <g
     inkscape:groupmode="layer"
     id="layer3"
     inkscape:label="White background"
     style="display:inline">
    <rect
       style="opacity:1;fill:#ffffff;fill-opacity:1"
       id="rect4700"
       width="1200.0001"
       height="200.00003"
       x="0"
       y="430.00003" />
  </g>
  <g
     inkscape:groupmode="layer"
     id="layer4"
     inkscape:label="Blue detail"
     style="display:inline">
    <rect
       style="opacity:1;fill:#007acc;fill-opacity:1"
       id="rect4703"
       width="1200.0001"
       height="9.9999914"
       x="0"
       y="430.00003" />
  </g>
  <g
     inkscape:groupmode="layer"
     id="layer6"
     inkscape:label="Number">
    <g
       transform="translate(43.663848,-39.24446)"
       style="font-style:normal;font-variant:normal;font-weight:normal;font-stretch:normal;font-size:180.00001526px;line-height:125%;font-family:'Open Sans';-inkscape-font-specification:'Open Sans';letter-spacing:0px;word-spacing:0px;fill:#000000;fill-opacity:1;stroke:none;stroke-width:1px;stroke-linecap:butt;stroke-linejoin:miter;stroke-opacity:1"
       id="flowRoot4156">
      <path
         d="m 142.04908,416.29588 -10.87647,0 0,-69.9585 q 0,-8.72803 0.53711,-16.51612 -1.40991,1.40991 -3.15552,2.9541 -1.7456,1.54419 -15.979,13.09205 l -5.90821,-7.65381 25.98267,-20.07447 9.39942,0 0,98.15675 z"
         style="font-size:137.50001526px;fill:#2b91af;fill-opacity:1"
         id="path6601" />
    </g>
    <g
       transform="translate(-64.755734,84.499239)"
       style="font-style:normal;font-variant:normal;font-weight:normal;font-stretch:normal;font-size:137.5px;line-height:125%;font-family:'Open Sans';-inkscape-font-specification:'Open Sans';letter-spacing:0px;word-spacing:0px;fill:#000000;fill-opacity:1;stroke:none;stroke-width:1px;stroke-linecap:butt;stroke-linejoin:miter;stroke-opacity:1"
       id="flowRoot4166">
      <path
         d="m 397.26001,292.55173 -11.41357,0 0,-88.0188 -31.08521,0 0,-10.13794 73.58398,0 0,10.13794 -31.0852,0 0,88.0188 z"
         style=""
         id="path6582" />
      <path
         d="m 491.72412,292.55173 0,-47.60132 q 0,-8.99659 -4.09546,-13.42774 -4.09546,-4.43115 -12.82348,-4.43115 -11.61499,0 -16.98609,6.31104 -5.30395,6.31103 -5.30395,20.67871 l 0,38.47046 -11.14502,0 0,-104.46778 11.14502,0 0,31.62232 q 0,5.70678 -0.53711,9.46655 l 0.67138,0 q 3.2898,-5.30396 9.33228,-8.3252 6.10962,-3.08838 13.8977,-3.08838 13.49488,0 20.20874,6.44532 6.78101,6.37817 6.78101,20.34301 l 0,48.00416 -11.14502,0 z"
         style=""
         id="path6584" />
      <path
         d="m 570.94775,292.55173 -2.21557,-10.47364 -0.53711,0 q -5.50537,6.91529 -11.01074,9.39942 -5.43824,2.41699 -13.62915,2.41699 -10.94361,0 -17.1875,-5.63965 -6.17676,-5.63965 -6.17676,-16.04614 0,-22.29004 35.65063,-23.36426 l 12.4878,-0.40283 0,-4.56543 q 0,-8.66089 -3.75977,-12.75635 -3.69263,-4.1626 -11.88354,-4.1626 -9.198,0 -20.81299,5.63965 l -3.42408,-8.52661 q 5.43824,-2.9541 11.88355,-4.63257 6.51245,-1.67847 13.0249,-1.67847 13.15918,0 19.47022,5.84107 6.37817,5.84106 6.37817,18.73169 l 0,50.21973 -8.25806,0 z m -25.177,-7.85523 q 10.4065,0 16.3147,-5.70679 5.97534,-5.70678 5.97534,-15.979 l 0,-6.64673 -11.14502,0.46997 q -13.29346,0.46997 -19.20166,4.1626 -5.84106,3.62549 -5.84106,11.34644 0,6.04248 3.62549,9.19799 3.69262,3.15552 10.27221,3.15552 z"
         style=""
         id="path6586" />
      <path
         d="m 626.00146,284.6965 q 2.95411,0 5.70679,-0.40283 2.75269,-0.46997 4.36402,-0.93994 l 0,8.52661 q -1.81275,0.8728 -5.3711,1.40991 -3.49121,0.60425 -6.31103,0.60425 -21.3501,0 -21.3501,-22.49146 l 0,-43.77441 -10.54077,0 0,-5.37109 10.54077,-4.63257 4.69971,-15.71045 6.44531,0 0,17.05322 21.3501,0 0,8.66089 -21.3501,0 0,43.30444 q 0,6.64673 3.15552,10.20508 3.15551,3.55835 8.66088,3.55835 z"
         style=""
         id="path6588" />
      <path
         d="m 730.26782,203.19015 q -16.18042,0 -25.57983,10.80933 -9.33228,10.74219 -9.33228,29.47388 0,19.26879 8.99658,29.80957 9.06373,10.47363 25.78125,10.47363 10.27222,0 23.4314,-3.69263 l 0,10.00366 q -10.20508,3.82691 -25.177,3.82691 -21.68579,0 -33.5022,-13.15918 -11.74927,-13.15918 -11.74927,-37.39624 0,-15.17334 5.63965,-26.58692 5.70679,-11.41357 16.38184,-17.59033 10.74219,-6.17676 25.24414,-6.17676 15.44189,0 26.98975,5.63965 l -4.83399,9.80225 q -11.14502,-5.23682 -22.29004,-5.23682 z"
         style=""
         id="path6590" />
      <path
         d="m 827.35034,232.19406 -4.43115,22.82715 19.00024,0 0,8.66089 -20.61157,0 -5.63965,28.86963 -9.198,0 5.63965,-28.86963 -20.34301,0 -5.50538,28.86963 -9.13085,0 5.37109,-28.86963 -17.59033,0 0,-8.66089 19.2688,0 4.56543,-22.82715 -18.59742,0 0,-8.52661 20.07447,0 5.50537,-29.27246 9.33227,0 -5.50537,29.27246 20.4773,0 5.63964,-29.27246 8.99659,0 -5.63965,29.27246 17.72461,0 0,8.52661 -19.40308,0 z m -33.97217,22.82715 20.34302,0 4.43115,-22.82715 -20.34301,0 -4.43116,22.82715 z"
         style=""
         id="path6592" />
      <path
         d="m 958.13647,218.96774 0,7.04956 -13.62915,1.61133 q 1.87989,2.34985 3.35694,6.17676 1.47705,3.75976 1.47705,8.52661 0,10.80932 -7.38526,17.25464 -7.38525,6.44531 -20.27587,6.44531 -3.2898,0 -6.17676,-0.53711 -7.1167,3.75977 -7.1167,9.46655 0,3.02124 2.48413,4.49829 2.48413,1.40992 8.52661,1.40992 l 13.0249,0 q 11.95069,0 18.32886,5.0354 6.44531,5.0354 6.44531,14.63623 0,12.21924 -9.80224,18.59741 -9.80225,6.44531 -28.60108,6.44531 -14.43481,0 -22.29004,-5.37109 -7.78808,-5.3711 -7.78808,-15.17334 0,-6.71387 4.29687,-11.61499 4.29688,-4.90113 12.08496,-6.64673 -2.81982,-1.27564 -4.76684,-3.96118 -1.87988,-2.68555 -1.87988,-6.2439 0,-4.02832 2.14843,-7.04956 2.14844,-3.02124 6.78101,-5.84106 -5.70679,-2.34986 -9.33228,-7.98951 -3.55835,-5.63964 -3.55835,-12.89062 0,-12.08496 7.25098,-18.59741 7.25098,-6.57959 20.54443,-6.57959 5.77393,0 10.4065,1.34277 l 25.44555,0 z m -58.67919,85.9375 q 0,5.97534 5.0354,9.06372 5.0354,3.08838 14.43481,3.08838 14.03198,0 20.74585,-4.22974 6.78101,-4.16259 6.78101,-11.34643 0,-5.97534 -3.69263,-8.3252 -3.69263,-2.28271 -13.89771,-2.28271 l -13.36059,0 q -7.58667,0 -11.81641,3.62549 -4.22973,3.62549 -4.22973,10.40649 z m 6.04248,-62.37183 q 0,7.72095 4.36401,11.68213 4.36401,3.96119 12.1521,3.96119 16.3147,0 16.3147,-15.84473 0,-16.58325 -16.51612,-16.58325 -7.85522,0 -12.08496,4.22973 -4.22973,4.22974 -4.22973,12.55493 z"
         style=""
         id="path6594" />
      <path
         d="m 983.85059,218.96774 0,47.7356 q 0,8.99658 4.09545,13.42773 4.09546,4.43115 12.82346,4.43115 11.5479,0 16.8518,-6.31103 5.3711,-6.31104 5.3711,-20.61157 l 0,-38.67188 11.1451,0 0,73.58399 -9.198,0 -1.6114,-9.86939 -0.6042,0 q -3.4241,5.43823 -9.5337,8.3252 -6.0425,2.88696 -13.83058,2.88696 -13.42774,0 -20.1416,-6.37818 -6.64673,-6.37817 -6.64673,-20.41015 l 0,-48.13843 11.2793,0 z"
         style=""
         id="path6596" />
      <path
         d="m 1046.021,218.96774 11.9507,0 16.1133,41.96167 q 5.3039,14.36768 6.5796,20.74585 l 0.5371,0 q 0.8728,-3.42407 3.6254,-11.68213 2.8199,-8.32519 18.2618,-51.02539 l 11.9507,0 -31.6224,83.78906 q -4.6997,12.42066 -11.0107,17.59034 -6.2439,5.23681 -15.3748,5.23681 -5.1025,0 -10.0708,-1.14136 l 0,-8.92944 q 3.6927,0.80567 8.2581,0.80567 11.4807,0 16.3818,-12.89063 l 4.0955,-10.47363 -29.6753,-73.98682 z"
         style=""
         id="path6598" />
    </g>
  </g>
</svg>
