<?xml version="1.0" encoding="UTF-8" standalone="no"?>
<!-- Created with Inkscape (http://www.inkscape.org/) -->

<svg
   xmlns:dc="http://purl.org/dc/elements/1.1/"
   xmlns:cc="http://creativecommons.org/ns#"
   xmlns:rdf="http://www.w3.org/1999/02/22-rdf-syntax-ns#"
   xmlns:svg="http://www.w3.org/2000/svg"
   xmlns="http://www.w3.org/2000/svg"
   xmlns:sodipodi="http://sodipodi.sourceforge.net/DTD/sodipodi-0.dtd"
   xmlns:inkscape="http://www.inkscape.org/namespaces/inkscape"
   width="1200"
   height="630"
   viewBox="0 0 1200 630.00001"
   id="svg4787"
   version="1.1"
   inkscape:version="0.91 r13725"
   sodipodi:docname="featured.svg">
  <defs
     id="defs4789" />
  <sodipodi:namedview
     id="base"
     pagecolor="#ffffff"
     bordercolor="#666666"
     borderopacity="1.0"
     inkscape:pageopacity="0.0"
     inkscape:pageshadow="2"
     inkscape:zoom="0.25"
     inkscape:cx="-548.5771"
     inkscape:cy="247.69043"
     inkscape:document-units="px"
     inkscape:current-layer="layer6"
     showgrid="false"
     units="px"
     inkscape:window-width="1366"
     inkscape:window-height="715"
     inkscape:window-x="-8"
     inkscape:window-y="-8"
     inkscape:window-maximized="1"
     showguides="false" />
  <metadata
     id="metadata4792">
    <rdf:RDF>
      <cc:Work
         rdf:about="">
        <dc:format>image/svg+xml</dc:format>
        <dc:type
           rdf:resource="http://purl.org/dc/dcmitype/StillImage" />
        <dc:title />
      </cc:Work>
    </rdf:RDF>
  </metadata>
  <g
     inkscape:groupmode="layer"
     id="layer5"
     inkscape:label="Fondo"
     sodipodi:insensitive="true" />
  <g
     inkscape:label="Texto"
     inkscape:groupmode="layer"
     id="layer1"
     transform="translate(0,-422.36216)"
     style="display:inline;opacity:1">
    <rect
       style="opacity:1;fill:#000140;fill-opacity:1;stroke:none;stroke-width:10;stroke-miterlimit:4;stroke-dasharray:none;stroke-dashoffset:0;stroke-opacity:0.82352941"
       id="rect5335"
       width="1200"
       height="630"
       x="0"
       y="422.36218" />
  </g>
  <g
     inkscape:groupmode="layer"
     id="layer6"
     inkscape:label="Magnifier">
    <g
       id="g5378"
       transform="translate(17.134479,168.98043)">
      <g
         transform="translate(59.999991,-71.0272)"
         style="font-style:normal;font-weight:normal;font-size:40px;line-height:125%;font-family:sans-serif;letter-spacing:0px;word-spacing:0px;display:inline;opacity:1;fill:#000000;fill-opacity:1;stroke:none;stroke-width:1px;stroke-linecap:butt;stroke-linejoin:miter;stroke-opacity:1"
         id="flowRoot5348">
        <path
           d="m 292.40674,283.24644 -111.99219,0 0,-194.645999 26.95557,0 0,172.009279 85.03662,0 0,22.63672 z"
           style="font-style:normal;font-variant:normal;font-weight:normal;font-stretch:normal;font-size:305px;font-family:Consolas;-inkscape-font-specification:Consolas;fill:#ffffff"
           id="path4750" />
        <path
           d="m 388.46387,155.17027 -44.23096,0 0,-21.44532 70.44189,0 0,127.92725 44.52881,0 0,21.59424 -119.88525,0 0,-21.59424 49.14551,0 0,-106.48193 z m 9.08447,-84.143071 q 4.31885,0 8.04199,1.638184 3.72315,1.489258 6.40381,4.318847 2.82959,2.82959 4.31885,6.552735 1.63818,3.574219 1.63818,7.893066 0,4.169922 -1.63818,7.893067 -1.48926,3.723142 -4.31885,6.552732 -2.68066,2.82959 -6.40381,4.46778 -3.72314,1.48925 -8.04199,1.48925 -4.31885,0 -8.04199,-1.48925 -3.72315,-1.63819 -6.55274,-4.46778 -2.68066,-2.82959 -4.31884,-6.552732 -1.48926,-3.723145 -1.48926,-7.893067 0,-4.318847 1.48926,-7.893066 1.63818,-3.723145 4.31884,-6.552735 2.82959,-2.829589 6.55274,-4.318847 3.72314,-1.638184 8.04199,-1.638184 z"
           style="font-style:normal;font-variant:normal;font-weight:normal;font-stretch:normal;font-size:305px;font-family:Consolas;-inkscape-font-specification:Consolas;fill:#ffffff"
           id="path4752" />
        <path
           d="m 505.51953,133.72495 23.0835,0 1.04248,24.12598 q 6.55273,-7.74414 12.65869,-12.80762 6.10596,-5.2124 11.91406,-8.33984 5.95703,-3.12744 12.06299,-4.31885 6.10596,-1.34033 12.65869,-1.34033 23.0835,0 34.84863,13.70117 11.91407,13.55225 11.91407,40.95459 l 0,97.54639 -25.91309,0 0,-95.46143 q 0,-17.57324 -6.55273,-25.91308 -6.55274,-8.48877 -19.50928,-8.48877 -4.76563,0 -9.38233,1.48925 -4.46777,1.34034 -9.38232,4.91455 -4.91455,3.4253 -10.72266,9.38233 -5.65918,5.95703 -12.80761,14.89258 l 0,99.18457 -25.91309,0 0,-149.52149 z"
           style="font-style:normal;font-variant:normal;font-weight:normal;font-stretch:normal;font-size:305px;font-family:Consolas;-inkscape-font-specification:Consolas;fill:#ffffff"
           id="path4754" />
      </g>
      <path
         style="fill:#ffffff"
         sodipodi:nodetypes="cccssssccccccsssss"
         id="path4"
         d="m 919.43607,211.18796 -13.01256,0 -4.61209,-4.44735 c 16.14219,-18.77765 25.86051,-43.15566 25.86051,-69.675 C 927.67193,77.93245 879.73944,30 820.60629,30 761.47314,30 713.54065,77.93245 713.54065,137.06561 c 0,59.13317 47.93249,107.06561 107.06564,107.06561 26.51932,0 50.89735,-9.71826 69.67497,-25.86045 l 4.44734,4.61205 0,13.01259 58.04515,56.14373 24.54275,-24.54273 z m -98.82978,0 c -41.01436,0 -74.12238,-33.10799 -74.12238,-74.12235 0,-41.01436 33.10802,-74.12235 74.12238,-74.12235 41.01435,0 74.12231,33.10799 74.12231,74.12235 0,41.01436 -33.10796,74.12235 -74.12231,74.12235 z"
         inkscape:connector-curvature="0" />
    </g>
    <g
       id="g5727"
       transform="translate(-2.5916042,-20)">
      <g
         transform="translate(0,1.1900689)"
         style="font-style:normal;font-weight:normal;font-size:40px;line-height:125%;font-family:sans-serif;letter-spacing:0px;word-spacing:0px;fill:#000000;fill-opacity:1;stroke:none;stroke-width:1px;stroke-linecap:butt;stroke-linejoin:miter;stroke-opacity:1"
         id="flowRoot5553">
        <path
           d="m 299.75,455.6693 -32.14844,0 q 0,4.02344 1.21094,7.03125 1.21094,2.96875 3.32031,4.88281 2.03125,1.875 4.80469,2.8125 2.8125,0.9375 6.17187,0.9375 4.45313,0 8.94532,-1.75781 4.53125,-1.79688 6.44531,-3.51563 l 0.39062,0 0,8.00782 q -3.71093,1.5625 -7.57812,2.61718 -3.86719,1.05469 -8.125,1.05469 -10.85938,0 -16.95313,-5.85937 -6.09375,-5.89844 -6.09375,-16.71875 0,-10.70313 5.82032,-16.99219 5.85937,-6.28906 15.39062,-6.28906 8.82813,0 13.59375,5.15625 4.80469,5.15625 4.80469,14.64843 l 0,3.98438 z m -7.14844,-5.625 q -0.0391,-5.78125 -2.92969,-8.94531 -2.85156,-3.16407 -8.71093,-3.16407 -5.89844,0 -9.41407,3.47657 -3.47656,3.47656 -3.94531,8.63281 l 25,0 z"
           style="font-style:normal;font-variant:normal;font-weight:normal;font-stretch:normal;font-size:80px;font-family:sans-serif;-inkscape-font-specification:sans-serif;fill:#ffffff"
           id="path4757" />
        <path
           d="m 347.36719,476.72399 -7.34375,0 0,-24.84375 q 0,-3.00782 -0.35157,-5.625 -0.35156,-2.65625 -1.28906,-4.14063 -0.97656,-1.64062 -2.8125,-2.42187 -1.83594,-0.82032 -4.76562,-0.82032 -3.00782,0 -6.28907,1.48438 -3.28125,1.48437 -6.28906,3.78906 l 0,32.57813 -7.34375,0 0,-43.63282 7.34375,0 0,4.84375 q 3.4375,-2.85156 7.10938,-4.45312 3.67187,-1.60156 7.53906,-1.60156 7.07031,0 10.78125,4.25781 3.71094,4.25781 3.71094,12.26562 l 0,28.32032 z"
           style="font-style:normal;font-variant:normal;font-weight:normal;font-stretch:normal;font-size:80px;font-family:sans-serif;-inkscape-font-specification:sans-serif;fill:#ffffff"
           id="path4759" />
      </g>
      <g
         transform="translate(-208,-18)"
         id="g5687">
        <rect
           style="display:inline;opacity:1;fill:#f6f6f6;fill-opacity:0.87843137;stroke:none;stroke-width:10;stroke-miterlimit:4;stroke-dasharray:none;stroke-dashoffset:0;stroke-opacity:1"
           id="rect4596"
           width="6.8000002"
           height="6.7999473"
           x="589.40002"
           y="436.60059" />
        <rect
           style="display:inline;opacity:1;fill:#f6f6f6;fill-opacity:0.38039216;stroke:none;stroke-width:10;stroke-miterlimit:4;stroke-dasharray:none;stroke-dashoffset:0;stroke-opacity:1"
           id="rect4596-0"
           width="6.8000002"
           height="6.7999473"
           x="582.59998"
           y="436.60059"
           inkscape:transform-center-x="-15.554976"
           inkscape:transform-center-y="0.59500787" />
        <rect
           style="display:inline;opacity:1;fill:#f6f6f6;fill-opacity:0.38039216;stroke:none;stroke-width:10;stroke-miterlimit:4;stroke-dasharray:none;stroke-dashoffset:0;stroke-opacity:1"
           id="rect4596-0-1"
           width="6.8000002"
           height="6.7999473"
           x="569"
           y="450.20007"
           inkscape:transform-center-x="-15.555"
           inkscape:transform-center-y="0.59501556" />
        <rect
           style="display:inline;opacity:1;fill:#f6f6f6;fill-opacity:0.38039216;stroke:none;stroke-width:10;stroke-miterlimit:4;stroke-dasharray:none;stroke-dashoffset:0;stroke-opacity:1"
           id="rect4596-0-1-0"
           width="6.8000002"
           height="6.7999473"
           x="582.59998"
           y="504.60004"
           inkscape:transform-center-x="-15.554976"
           inkscape:transform-center-y="0.59498553" />
        <rect
           style="display:inline;opacity:1;fill:#f6f6f6;fill-opacity:0.80784314;stroke:none;stroke-width:10;stroke-miterlimit:4;stroke-dasharray:none;stroke-dashoffset:0;stroke-opacity:1"
           id="rect4596-0-1-2"
           width="6.8000002"
           height="6.7999473"
           x="569"
           y="457.00006"
           inkscape:transform-center-x="-15.555"
           inkscape:transform-center-y="0.59500335" />
        <rect
           style="display:inline;opacity:1;fill:#f6f6f6;fill-opacity:0.80784314;stroke:none;stroke-width:10;stroke-miterlimit:4;stroke-dasharray:none;stroke-dashoffset:0;stroke-opacity:1"
           id="rect4596-0-1-2-0"
           width="6.8000002"
           height="6.7999473"
           x="569"
           y="484.20007"
           inkscape:transform-center-x="-15.555"
           inkscape:transform-center-y="0.59500519" />
        <rect
           style="display:inline;opacity:1;fill:#f6f6f6;fill-opacity:0.80784314;stroke:none;stroke-width:10;stroke-miterlimit:4;stroke-dasharray:none;stroke-dashoffset:0;stroke-opacity:1"
           id="rect4596-0-1-2-0-0"
           width="6.8000002"
           height="6.7999473"
           x="616.59998"
           y="504.60004"
           inkscape:transform-center-x="-15.554976"
           inkscape:transform-center-y="0.59499964" />
        <rect
           style="display:inline;opacity:1;fill:#f6f6f6;fill-opacity:0.38039216;stroke:none;stroke-width:10;stroke-miterlimit:4;stroke-dasharray:none;stroke-dashoffset:0;stroke-opacity:1"
           id="rect4596-0-1-4"
           width="6.8000002"
           height="6.7999473"
           x="575.79999"
           y="443.40005"
           inkscape:transform-center-x="-15.554988"
           inkscape:transform-center-y="0.59499725" />
        <rect
           style="display:inline;opacity:1;fill:#f6f6f6;fill-opacity:0.38039216;stroke:none;stroke-width:10;stroke-miterlimit:4;stroke-dasharray:none;stroke-dashoffset:0;stroke-opacity:1"
           id="rect4596-0-1-42"
           width="6.8000002"
           height="6.7999473"
           x="569"
           y="491.00006"
           inkscape:transform-center-x="-15.555"
           inkscape:transform-center-y="0.59500335" />
        <rect
           style="display:inline;opacity:1;fill:#f6f6f6;fill-opacity:0.38039216;stroke:none;stroke-width:10;stroke-miterlimit:4;stroke-dasharray:none;stroke-dashoffset:0;stroke-opacity:1"
           id="rect4596-0-1-4-3"
           width="6.8000002"
           height="6.7999473"
           x="589.40002"
           y="504.60004"
           inkscape:transform-center-x="-15.555025"
           inkscape:transform-center-y="0.59499964" />
        <path
           style="display:inline;opacity:1;fill:#f6f6f6;fill-opacity:1;stroke:none;stroke-width:10;stroke-miterlimit:4;stroke-dasharray:none;stroke-dashoffset:0;stroke-opacity:1"
           d="m 596.2,436.60034 0,6.79995 -13.6,-3.4e-4 0,6.79994 -6.8,0 0,13.5999 -6.8,0 0,20.39983 6.8,0 0,13.59988 6.8,0 0,6.79996 13.6,2.7e-4 0,6.79994 20.4,-2.8e-4 0,-6.79993 13.6,0 0,-6.79996 34,0 0,-6.79994 6.8,0 0,-47.59961 -6.8,0 0,-6.79995 -40.8,0 z"
           id="rect4506"
           inkscape:connector-curvature="0"
           sodipodi:nodetypes="cccccccccccccccccccccccccc" />
        <rect
           style="display:inline;opacity:1;fill:#f6f6f6;fill-opacity:0.38039216;stroke:none;stroke-width:10;stroke-miterlimit:4;stroke-dasharray:none;stroke-dashoffset:0;stroke-opacity:1"
           id="rect4596-0-1-4-1"
           width="6.8000002"
           height="6.7999473"
           x="575.79999"
           y="497.80008"
           inkscape:transform-center-x="-15.554988"
           inkscape:transform-center-y="0.59500086" />
        <g
           id="g4150"
           style="display:inline;fill:#360000;fill-opacity:1"
           transform="matrix(0.68,0,0,0.67999473,582.6,-217.80066)">
          <g
             transform="matrix(0,1,-1,0,1052.3622,1002.3622)"
             id="g4144"
             style="fill:#360000;fill-opacity:1">
            <path
               style="opacity:1;fill:#3c8a3f;fill-opacity:1;stroke:none;stroke-width:5.96291208;stroke-miterlimit:4;stroke-dasharray:none;stroke-dashoffset:0;stroke-opacity:1"
               d="m -19.999995,982.3622 9.9999997,0 0,10 10.0000000244096,0 0,-10 10.0000002755904,0 0,10 10,0 0,-10 10,0 0,-10 -10,0 0,-10 10,0 0,-10 -10,0 0,-10 -10,0 0,10 -10.0000002755904,0 0,-10 -10.0000000244096,0 0,10 -9.9999997,0 0,10 9.9999997,0 0,10 -9.9999997,0 0,10 z m 19.9999997244096,-10 0,-10 10.0000002755904,0 0,10 -10.0000002755904,0 z"
               id="rect4148"
               inkscape:connector-curvature="0" />
          </g>
        </g>
        <g
           style="display:inline"
           id="g4445"
           transform="matrix(0.68,0,0,0.68,582.6,-217.8062)">
          <path
             inkscape:transform-center-y="26.516504"
             inkscape:transform-center-x="5.7792381"
             inkscape:connector-curvature="0"
             id="rect4217"
             d="m 40,992.36222 10,0 0,9.99998 -10,0 z"
             style="opacity:1;fill:#82b384;fill-opacity:1;stroke:none;stroke-width:10;stroke-miterlimit:4;stroke-dasharray:none;stroke-dashoffset:0;stroke-opacity:1" />
          <path
             inkscape:transform-center-y="26.516504"
             inkscape:transform-center-x="5.7792381"
             inkscape:connector-curvature="0"
             id="rect4217-4"
             d="m 10,982.36225 10,0 0,9.99995 -10,0 z"
             style="opacity:1;fill:#82b384;fill-opacity:1;stroke:none;stroke-width:10;stroke-miterlimit:4;stroke-dasharray:none;stroke-dashoffset:0;stroke-opacity:1" />
          <path
             inkscape:transform-center-y="26.516504"
             inkscape:transform-center-x="5.7792381"
             inkscape:connector-curvature="0"
             id="rect4217-4-3"
             d="m 0,992.36222 10,0 0,9.99998 -10,0 z"
             style="opacity:1;fill:#82b384;fill-opacity:1;stroke:none;stroke-width:10;stroke-miterlimit:4;stroke-dasharray:none;stroke-dashoffset:0;stroke-opacity:1" />
          <path
             inkscape:transform-center-y="26.516504"
             inkscape:transform-center-x="5.7792381"
             inkscape:connector-curvature="0"
             id="rect4217-4-3-5"
             d="m 20,992.36228 10,0 0,9.99992 -10,0 z"
             style="opacity:1;fill:#6ba56d;fill-opacity:1;stroke:none;stroke-width:10;stroke-miterlimit:4;stroke-dasharray:none;stroke-dashoffset:0;stroke-opacity:1" />
          <path
             inkscape:transform-center-y="26.516504"
             inkscape:transform-center-x="5.7792381"
             inkscape:connector-curvature="0"
             id="rect4217-4-3-5-4"
             d="m 0,1032.3623 10,0 0,9.9999 -10,0 z"
             style="opacity:1;fill:#6ba56d;fill-opacity:1;stroke:none;stroke-width:10;stroke-miterlimit:4;stroke-dasharray:none;stroke-dashoffset:0;stroke-opacity:1" />
          <path
             inkscape:transform-center-y="26.516504"
             inkscape:transform-center-x="5.7792381"
             inkscape:connector-curvature="0"
             id="rect4217-4-3-5-4-3"
             d="m 10,1012.3623 10.000001,0 0,9.9999 -10.000001,0 z"
             style="opacity:1;fill:#6ba56d;fill-opacity:1;stroke:none;stroke-width:10;stroke-miterlimit:4;stroke-dasharray:none;stroke-dashoffset:0;stroke-opacity:1" />
          <path
             inkscape:transform-center-y="26.516504"
             inkscape:transform-center-x="5.7792381"
             inkscape:connector-curvature="0"
             id="rect4217-4-3-5-4-0"
             d="m 10,1042.3623 10,0 0,9.9999 -10,0 z"
             style="opacity:1;fill:#6ba56d;fill-opacity:1;stroke:none;stroke-width:10;stroke-miterlimit:4;stroke-dasharray:none;stroke-dashoffset:0;stroke-opacity:1" />
          <path
             inkscape:transform-center-y="26.516504"
             inkscape:transform-center-x="5.7792381"
             inkscape:connector-curvature="0"
             id="rect4217-4-3-5-4-0-7"
             d="m 20,1032.3623 10,0 0,9.9999 -10,0 z"
             style="opacity:1;fill:#6ba56d;fill-opacity:1;stroke:none;stroke-width:10;stroke-miterlimit:4;stroke-dasharray:none;stroke-dashoffset:0;stroke-opacity:1" />
          <path
             inkscape:transform-center-y="26.516504"
             inkscape:transform-center-x="5.7792381"
             inkscape:connector-curvature="0"
             id="rect4217-4-3-5-4-0-7-4"
             d="m 40,1032.3623 10,0 0,9.9999 -10,0 z"
             style="opacity:1;fill:#6ba56d;fill-opacity:1;stroke:none;stroke-width:10;stroke-miterlimit:4;stroke-dasharray:none;stroke-dashoffset:0;stroke-opacity:1" />
          <path
             inkscape:transform-center-y="26.516504"
             inkscape:transform-center-x="5.7792381"
             inkscape:connector-curvature="0"
             id="rect4217-4-3-5-4-3-3"
             d="m 10,1002.3623 10,0 0,9.9999 -10,0 z"
             style="opacity:1;fill:#539856;fill-opacity:1;stroke:none;stroke-width:10;stroke-miterlimit:4;stroke-dasharray:none;stroke-dashoffset:0;stroke-opacity:1" />
          <path
             inkscape:transform-center-y="26.516504"
             inkscape:transform-center-x="5.7792381"
             inkscape:connector-curvature="0"
             id="rect4217-4-3-5-4-3-3-5"
             d="m 10,1022.3623 10.000001,0 0,9.9999 -10.000001,0 z"
             style="opacity:1;fill:#539856;fill-opacity:1;stroke:none;stroke-width:10;stroke-miterlimit:4;stroke-dasharray:none;stroke-dashoffset:0;stroke-opacity:1" />
          <path
             inkscape:transform-center-y="26.516504"
             inkscape:transform-center-x="5.7792381"
             inkscape:connector-curvature="0"
             id="rect4217-4-3-5-9"
             d="m 20,1002.266 10,0 0,10.1922 -10,-1e-4 z"
             style="opacity:1;fill:#eaefeb;fill-opacity:1;stroke:none;stroke-width:10;stroke-miterlimit:4;stroke-dasharray:none;stroke-dashoffset:0;stroke-opacity:1"
             sodipodi:nodetypes="ccccc" />
          <path
             inkscape:transform-center-y="26.516504"
             inkscape:transform-center-x="5.7792381"
             inkscape:connector-curvature="0"
             id="rect4217-4-3-5-9-8"
             d="m 30,992.36221 10,0 0,9.99999 -10,0 z"
             style="opacity:1;fill:#99c09b;fill-opacity:1;stroke:none;stroke-width:10;stroke-miterlimit:4;stroke-dasharray:none;stroke-dashoffset:0;stroke-opacity:1" />
          <path
             inkscape:transform-center-y="26.516504"
             inkscape:transform-center-x="5.7792381"
             inkscape:connector-curvature="0"
             id="rect4217-4-3-5-9-8-5"
             d="m 30,1032.3622 10,0 0,10 -10,0 z"
             style="opacity:1;fill:#99c09b;fill-opacity:1;stroke:none;stroke-width:10;stroke-miterlimit:4;stroke-dasharray:none;stroke-dashoffset:0;stroke-opacity:1" />
          <path
             inkscape:transform-center-y="26.516504"
             inkscape:transform-center-x="5.7792381"
             inkscape:connector-curvature="0"
             id="rect4217-4-3-5-9-2"
             d="m 0,982.3622 10,0 0,10 -10,0 z"
             style="opacity:1;fill:#eaefeb;fill-opacity:1;stroke:none;stroke-width:10;stroke-miterlimit:4;stroke-dasharray:none;stroke-dashoffset:0;stroke-opacity:1" />
          <path
             inkscape:transform-center-y="26.516504"
             inkscape:transform-center-x="5.7792381"
             inkscape:connector-curvature="0"
             id="rect4217-4-3-5-9-2-4"
             d="m 0,1042.3622 10,0 0,10 -10,0 z"
             style="opacity:1;fill:#eaefeb;fill-opacity:1;stroke:none;stroke-width:10;stroke-miterlimit:4;stroke-dasharray:none;stroke-dashoffset:0;stroke-opacity:1" />
        </g>
        <g
           transform="matrix(0,0.67999473,-0.68,0,1298.2063,463.80038)"
           style="display:inline;fill:#360000;fill-opacity:1"
           id="g4209">
          <path
             inkscape:connector-curvature="0"
             id="rect4198"
             d="m 40.000005,1032.3622 0,-30 10,0 0,30 z"
             style="opacity:1;fill:#3c8a3f;fill-opacity:1;stroke:none;stroke-width:10;stroke-miterlimit:4;stroke-dasharray:none;stroke-dashoffset:0;stroke-opacity:1" />
          <path
             style="opacity:1;fill:#3c8a3f;fill-opacity:1;stroke:none;stroke-width:10;stroke-miterlimit:4;stroke-dasharray:none;stroke-dashoffset:0;stroke-opacity:1"
             d="m 30.000005,1052.3622 -30.0000001755905,0 0,-10 30.0000001755905,0 z"
             id="path4201"
             inkscape:connector-curvature="0" />
          <path
             inkscape:connector-curvature="0"
             id="path4203"
             d="m -9.9999953,1002.3622 0,30 -10.0000007,0 0,-30 z"
             style="opacity:1;fill:#3c8a3f;fill-opacity:1;stroke:none;stroke-width:10;stroke-miterlimit:4;stroke-dasharray:none;stroke-dashoffset:0;stroke-opacity:1" />
          <path
             style="opacity:1;fill:#3c8a3f;fill-opacity:1;stroke:none;stroke-width:10;stroke-miterlimit:4;stroke-dasharray:none;stroke-dashoffset:0;stroke-opacity:1"
             d="m 4.7244096e-6,1032.3622 0,10 -10.0000007244096,0 0,-10 z"
             id="path4205"
             inkscape:connector-curvature="0" />
          <path
             inkscape:connector-curvature="0"
             id="path4207"
             d="m 40.000005,1032.3622 0,10 -10.000001,0 0,-10 z"
             style="opacity:1;fill:#3c8a3f;fill-opacity:1;stroke:none;stroke-width:10;stroke-miterlimit:4;stroke-dasharray:none;stroke-dashoffset:0;stroke-opacity:1" />
        </g>
      </g>
    </g>
  </g>
</svg>
