<?xml version="1.0" encoding="UTF-8" standalone="no"?>
<!-- Created with Inkscape (http://www.inkscape.org/) -->

<svg
   xmlns:dc="http://purl.org/dc/elements/1.1/"
   xmlns:cc="http://creativecommons.org/ns#"
   xmlns:rdf="http://www.w3.org/1999/02/22-rdf-syntax-ns#"
   xmlns:svg="http://www.w3.org/2000/svg"
   xmlns="http://www.w3.org/2000/svg"
   xmlns:sodipodi="http://sodipodi.sourceforge.net/DTD/sodipodi-0.dtd"
   xmlns:inkscape="http://www.inkscape.org/namespaces/inkscape"
   width="1200"
   height="630"
   viewBox="0 0 1200.0001 630.00001"
   id="svg2"
   version="1.1"
   inkscape:version="0.91 r13725"
   sodipodi:docname="featured.svg"
   inkscape:export-filename="/home/fferegrino/Documents/github/that-c-sharp-guy/postimages/opening-files-xamarin-forms/featured.png"
   inkscape:export-xdpi="90"
   inkscape:export-ydpi="90">
  <defs
     id="defs4" />
  <sodipodi:namedview
     id="base"
     pagecolor="#ffffff"
     bordercolor="#666666"
     borderopacity="1.0"
     inkscape:pageopacity="0.0"
     inkscape:pageshadow="2"
     inkscape:zoom="0.5"
     inkscape:cx="635.01129"
     inkscape:cy="105.62071"
     inkscape:document-units="px"
     inkscape:current-layer="flowRoot3493"
     showgrid="false"
     units="px"
     inkscape:window-width="1301"
     inkscape:window-height="744"
     inkscape:window-x="65"
     inkscape:window-y="24"
     inkscape:window-maximized="1"
     borderlayer="true" />
  <metadata
     id="metadata7">
    <rdf:RDF>
      <cc:Work
         rdf:about="">
        <dc:format>image/svg+xml</dc:format>
        <dc:type
           rdf:resource="http://purl.org/dc/dcmitype/StillImage" />
        <dc:title />
      </cc:Work>
    </rdf:RDF>
  </metadata>
  <g
     inkscape:label="Capa 1"
     inkscape:groupmode="layer"
     id="layer1"
     transform="translate(0,-422.36232)"
     style="display:inline">
    <rect
       y="-65.907944"
       x="-1106.3623"
       height="1287.8159"
       width="272.65973"
       id="rect3348"
       style="fill:#002255"
       transform="matrix(0,-1,1,0,0,0)" />
    <rect
       style="fill:#0044aa"
       id="rect3350"
       width="227.21461"
       height="1287.8159"
       x="-833.72131"
       y="-65.907944"
       transform="matrix(0,-1,1,0,0,0)" />
    <rect
       y="-65.907944"
       x="-617.43848"
       height="1287.8159"
       width="243.41621"
       id="rect3352"
       style="fill:#0066ff"
       transform="matrix(0,-1,1,0,0,0)" />
  </g>
  <g
     inkscape:groupmode="layer"
     id="layer2"
     inkscape:label="Mobile"
     style="display:inline" />
  <g
     inkscape:groupmode="layer"
     id="layer3"
     inkscape:label="Arrow"
     style="display:inline" />
  <g
     inkscape:groupmode="layer"
     id="layer4"
     inkscape:label="File"
     style="display:inline">
    <g
       id="g3531"
       transform="translate(68.686556,0)">
      <g
         id="g4240"
         transform="translate(-75.84961,0)">
        <g
           style="display:inline"
           id="g3387"
           transform="matrix(0.75082856,0,0,0.75082856,186.64246,-35.268836)">
          <rect
             y="164.99232"
             x="742.43152"
             height="300.01529"
             width="220.21326"
             id="rect3355"
             style="fill:#5599ff" />
          <rect
             y="128.96431"
             x="787.91901"
             height="27.274118"
             width="140.41121"
             id="rect3357"
             style="fill:#1f241c" />
          <rect
             y="458.27405"
             x="793.97992"
             height="63.63961"
             width="120.20815"
             id="rect3359"
             style="fill:#b7c8b7" />
          <path
             style="fill:#ffffff"
             d="m 653.97461,99.9375 c -11.64922,0 -21.72929,4.25665 -30.24219,12.76953 -8.5129,8.51291 -12.76953,18.59297 -12.76953,30.24219 l 0,140.22881 32.25977,0 0,-86.46319 c 0,-2.91231 1.06317,-5.43232 3.1914,-7.56054 2.12821,-2.12822 4.64824,-3.19141 7.56055,-3.19141 l 172.05078,0 c 2.91231,0 5.43235,1.06319 7.56055,3.19141 2.12824,2.12822 3.1914,4.64823 3.1914,7.56054 l 0,236.57032 c 0,2.91236 -1.06316,5.4324 -3.1914,7.56054 -2.1282,2.12833 -4.64824,3.19141 -7.56055,3.19141 l -172.05078,0 c -2.91231,0 -5.43234,-1.06308 -7.56055,-3.19141 -2.12823,-2.12814 -3.1914,-4.64818 -3.1914,-7.56054 l 0,-86.43912 -32.25977,0 0,140.20474 c 0,11.64917 4.25663,21.72924 12.76953,30.24219 8.5129,8.51291 18.59297,12.76953 30.24219,12.76953 l 172.05078,0 c 11.64923,0 21.72929,-4.25662 30.24219,-12.76953 8.5129,-8.51295 12.76953,-18.59302 12.76953,-30.24219 l 0,-344.10156 c 0,-11.64922 -4.25663,-21.72928 -12.76953,-30.24219 -8.5129,-8.51288 -18.59296,-12.76953 -30.24219,-12.76953 z m 59.14258,43.01172 53.76562,0 c 3.58439,0 5.37696,1.79258 5.37696,5.37695 0,3.58437 -1.79257,5.37695 -5.37696,5.37695 l -53.76562,0 c -3.58433,0 -5.37696,-1.79258 -5.37696,-5.37695 0,-3.58437 1.79263,-5.37695 5.37696,-5.37695 z M 740,460.16797 c 7.39278,0 13.7218,2.63189 18.98633,7.89648 5.26457,5.26452 7.89648,11.59351 7.89648,18.98633 0,7.39277 -2.63191,13.7198 -7.89648,18.98438 -5.26453,5.26457 -11.59355,7.89843 -18.98633,7.89843 -7.39283,0 -13.72181,-2.63386 -18.98633,-7.89843 -5.26457,-5.26458 -7.89648,-11.59161 -7.89648,-18.98438 0,-7.39282 2.63191,-13.72181 7.89648,-18.98633 5.26452,-5.26459 11.5935,-7.89648 18.98633,-7.89648 z"
             id="path3360"
             inkscape:connector-curvature="0"
             sodipodi:nodetypes="sssccssssssscsscsccssssssssssssssssssssssssss"
             transform="translate(112.53814,-2.7550931e-5)" />
        </g>
        <path
           inkscape:connector-curvature="0"
           style="display:inline;fill:#ffffff"
           d="m 832.2952,200.86678 c 0,1.19539 -0.42693,2.22 -1.28077,3.07385 l -49.18166,45.33933 c -1.36615,1.19539 -2.86037,1.45155 -4.48269,0.76846 -1.62232,-0.76846 -2.43348,-2.00654 -2.43348,-3.71424 l 0,-28.68929 -294.9895,0 c -1.19539,0 -2.17731,-0.38424 -2.94577,-1.1527 -0.76847,-0.76847 -1.15271,-1.75038 -1.15271,-2.94577 l 0,-24.59082 c 0,-1.19539 0.38424,-2.17731 1.15271,-2.94578 0.76846,-0.76847 1.75038,-1.1527 2.94577,-1.1527 l 294.9895,0 0,-28.68928 c 0,-1.79308 0.81116,-3.03116 2.43348,-3.71425 1.62232,-0.68307 3.11654,-0.46961 4.48269,0.64039 l 49.18166,44.82701 c 0.85384,0.85386 1.28077,1.83579 1.28077,2.94579 z"
           id="path3363"
           sodipodi:nodetypes="scccscsssssscssccs" />
        <path
           inkscape:connector-curvature="0"
           style="fill:#ffffff"
           d="m 409.52822,171.77901 0,-36.21511 q 1.688,1.07419 2.76216,2.14836 l 31.30458,31.30458 q 1.0742,1.07417 2.14836,2.76217 l -36.2151,0 z m -9.82105,2.45526 q 0,3.06907 2.14836,5.21743 2.14834,2.14836 5.21743,2.14836 l 41.73944,0 0,81.02361 q 0,3.06907 -2.14835,5.21743 -2.14835,2.14835 -5.21743,2.14835 l -103.12098,0 q -3.06908,0 -5.21742,-2.14835 -2.14836,-2.14836 -2.14836,-5.21743 l 0,-122.76306 q 0,-3.06907 2.14836,-5.21742 2.14834,-2.14836 5.21742,-2.14836 l 61.38153,0 0,41.73944 z"
           id="path3425" />
        <g
           style="font-style:normal;font-weight:normal;font-size:37.95241928px;line-height:125%;font-family:sans-serif;letter-spacing:0px;word-spacing:0px;fill:#000000;fill-opacity:1;stroke:none;stroke-width:1px;stroke-linecap:butt;stroke-linejoin:miter;stroke-opacity:1"
           id="flowRoot3493">
          <path
             d="m 136.79264,400.67464 -8.04729,0 -16.38644,-26.81039 -16.678307,26.81039 -7.50524,0 20.264147,-31.85558 -18.888186,-29.10365 7.838806,0 15.13557,24.14185 15.26065,-24.14185 7.54694,0 -18.88819,28.85348 20.34754,32.10575 z"
             style="font-style:normal;font-variant:normal;font-weight:normal;font-stretch:normal;font-size:85.39295197px;line-height:100%;font-family:'Open Sans';-inkscape-font-specification:'Open Sans';fill:#ffffff"
             id="path4181" />
          <path
             d="m 172.65101,400.67464 -1.37596,-6.50455 -0.33357,0 q -3.41905,4.29467 -6.83811,5.83741 -3.37735,1.50105 -8.46424,1.50105 -6.79641,0 -10.67412,-3.50244 -3.83601,-3.50245 -3.83601,-9.96529 0,-13.843 22.14046,-14.51014 l 7.75541,-0.25017 0,-2.83531 q 0,-5.37876 -2.33496,-7.9222 -2.29327,-2.58514 -7.38015,-2.58514 -5.71232,0 -12.92569,3.50245 l -2.12649,-5.29537 q 3.37736,-1.83461 7.38015,-2.87701 4.0445,-1.04239 8.08899,-1.04239 8.17237,0 12.09177,3.62753 3.9611,3.62753 3.9611,11.63312 l 0,31.18845 -5.12858,0 z m -15.63592,-4.87841 q 6.46285,0 10.13208,-3.54414 3.71092,-3.54414 3.71092,-9.9236 l 0,-4.12788 -6.9215,0.29187 q -8.25576,0.29187 -11.92499,2.58514 -3.62753,2.25157 -3.62753,7.04659 0,3.75262 2.25157,5.71232 2.29327,1.9597 6.37945,1.9597 z"
             style="font-style:normal;font-variant:normal;font-weight:normal;font-stretch:normal;font-size:85.39295197px;line-height:100%;font-family:'Open Sans';-inkscape-font-specification:'Open Sans';fill:#ffffff"
             id="path4183" />
          <path
             d="m 250.33024,400.67464 0,-29.72909 q 0,-5.46215 -2.33496,-8.17238 -2.33497,-2.75192 -7.25507,-2.75192 -6.46284,0 -9.54833,3.71093 -3.08549,3.71092 -3.08549,11.42464 l 0,25.51782 -6.9215,0 0,-29.72909 q 0,-5.46215 -2.33496,-8.17238 -2.33497,-2.75192 -7.29676,-2.75192 -6.50454,0 -9.54834,3.91941 -3.00209,3.8777 -3.00209,12.7589 l 0,23.97508 -6.9215,0 0,-45.69858 5.62893,0 1.12579,6.25437 0.33356,0 q 1.9597,-3.33566 5.50384,-5.21197 3.58584,-1.87631 8.00559,-1.87631 10.71582,0 14.00978,7.75541 l 0.33357,0 q 2.04309,-3.58583 5.9208,-5.67062 3.87771,-2.08479 8.83951,-2.08479 7.75541,0 11.59142,4.00279 3.87771,3.9611 3.87771,12.71721 l 0,29.81249 -6.9215,0 z"
             style="font-style:normal;font-variant:normal;font-weight:normal;font-stretch:normal;font-size:85.39295197px;line-height:100%;font-family:'Open Sans';-inkscape-font-specification:'Open Sans';fill:#ffffff"
             id="path4185" />
          <path
             d="m 299.57296,400.67464 -1.37596,-6.50455 -0.33357,0 q -3.41905,4.29467 -6.83811,5.83741 -3.37736,1.50105 -8.46424,1.50105 -6.79641,0 -10.67412,-3.50244 -3.83601,-3.50245 -3.83601,-9.96529 0,-13.843 22.14046,-14.51014 l 7.75541,-0.25017 0,-2.83531 q 0,-5.37876 -2.33496,-7.9222 -2.29327,-2.58514 -7.38015,-2.58514 -5.71233,0 -12.9257,3.50245 l -2.12648,-5.29537 q 3.37736,-1.83461 7.38015,-2.87701 4.04449,-1.04239 8.08898,-1.04239 8.17238,0 12.09178,3.62753 3.9611,3.62753 3.9611,11.63312 l 0,31.18845 -5.12858,0 z m -15.63592,-4.87841 q 6.46285,0 10.13207,-3.54414 3.71093,-3.54414 3.71093,-9.9236 l 0,-4.12788 -6.9215,0.29187 q -8.25576,0.29187 -11.92499,2.58514 -3.62754,2.25157 -3.62754,7.04659 0,3.75262 2.25158,5.71232 2.29326,1.9597 6.37945,1.9597 z"
             style="font-style:normal;font-variant:normal;font-weight:normal;font-stretch:normal;font-size:85.39295197px;line-height:100%;font-family:'Open Sans';-inkscape-font-specification:'Open Sans';fill:#ffffff"
             id="path4187" />
          <path
             d="m 339.85108,354.14215 q 3.04379,0 5.46215,0.50035 l -0.95901,6.42115 q -2.83531,-0.62544 -5.00349,-0.62544 -5.54554,0 -9.50664,4.50314 -3.9194,4.50315 -3.9194,11.21617 l 0,24.51712 -6.9215,0 0,-45.69858 5.71232,0 0.79222,8.46425 0.33357,0 q 2.54344,-4.46145 6.12928,-6.87981 3.58583,-2.41835 7.8805,-2.41835 z"
             style="font-style:normal;font-variant:normal;font-weight:normal;font-stretch:normal;font-size:85.39295197px;line-height:100%;font-family:'Open Sans';-inkscape-font-specification:'Open Sans';fill:#ffffff"
             id="path4189" />
          <path
             d="m 360.78236,400.67464 -6.9215,0 0,-45.69858 6.9215,0 0,45.69858 z m -7.50524,-58.08222 q 0,-2.37666 1.16748,-3.46075 1.16748,-1.12579 2.9187,-1.12579 1.66783,0 2.87701,1.12579 1.20918,1.12578 1.20918,3.46075 0,2.33496 -1.20918,3.50244 -1.20918,1.12579 -2.87701,1.12579 -1.75122,0 -2.9187,-1.12579 -1.16748,-1.16748 -1.16748,-3.50244 z"
             style="font-style:normal;font-variant:normal;font-weight:normal;font-stretch:normal;font-size:85.39295197px;line-height:100%;font-family:'Open Sans';-inkscape-font-specification:'Open Sans';fill:#ffffff"
             id="path4191" />
          <path
             d="m 406.81451,400.67464 0,-29.56231 q 0,-5.58723 -2.54344,-8.33916 -2.54344,-2.75192 -7.96389,-2.75192 -7.17168,0 -10.50734,3.87771 -3.33566,3.87771 -3.33566,12.8006 l 0,23.97508 -6.9215,0 0,-45.69858 5.62893,0 1.12579,6.25437 0.33356,0 q 2.12649,-3.37736 5.9625,-5.21197 3.83601,-1.87631 8.54763,-1.87631 8.25577,0 12.42534,4.00279 4.16958,3.9611 4.16958,12.71721 l 0,29.81249 -6.9215,0 z"
             style="font-style:normal;font-variant:normal;font-weight:normal;font-stretch:normal;font-size:85.39295197px;line-height:100%;font-family:'Open Sans';-inkscape-font-specification:'Open Sans';fill:#ffffff"
             id="path4193" />
          <path
             d="m 426.91185,396.25488 q 0,-2.79361 1.25088,-4.21127 1.29257,-1.45935 3.66923,-1.45935 2.41835,0 3.75262,1.45935 1.37596,1.41766 1.37596,4.21127 0,2.71023 -1.37596,4.16958 -1.37596,1.45935 -3.75262,1.45935 -2.12649,0 -3.54414,-1.29257 -1.37597,-1.33426 -1.37597,-4.33636 z"
             style="font-style:normal;font-variant:normal;font-weight:normal;font-stretch:normal;font-size:85.39295197px;line-height:100%;font-family:'Open Sans';-inkscape-font-specification:'Open Sans';fill:#ffffff"
             id="path4195" />
          <path
             d="m 458.72576,400.67464 -7.08829,0 0,-60.95923 33.98206,0 0,6.29606 -26.89377,0 0,22.30724 25.26764,0 0,6.29606 -25.26764,0 0,26.05987 z"
             style="font-style:normal;font-variant:normal;font-weight:normal;font-stretch:normal;font-size:85.39295197px;line-height:100%;font-family:'Open Sans';-inkscape-font-specification:'Open Sans';fill:#ffffff"
             id="path4197" />
          <path
             d="m 534.07002,377.78365 q 0,11.17447 -5.62893,17.47053 -5.62893,6.25437 -15.55253,6.25437 -6.12928,0 -10.8826,-2.87701 -4.75332,-2.87701 -7.33845,-8.25576 -2.58514,-5.37876 -2.58514,-12.59213 0,-11.17446 5.58723,-17.38714 5.58724,-6.25436 15.51083,-6.25436 9.59003,0 15.21896,6.37945 5.67063,6.37946 5.67063,17.26205 z m -34.81598,0 q 0,8.75612 3.50245,13.34265 3.50244,4.58654 10.29885,4.58654 6.79642,0 10.29886,-4.54484 3.54414,-4.58654 3.54414,-13.38435 0,-8.71441 -3.54414,-13.21756 -3.50244,-4.54484 -10.38225,-4.54484 -6.79641,0 -10.25716,4.46145 -3.46075,4.46145 -3.46075,13.30095 z"
             style="font-style:normal;font-variant:normal;font-weight:normal;font-stretch:normal;font-size:85.39295197px;line-height:100%;font-family:'Open Sans';-inkscape-font-specification:'Open Sans';fill:#ffffff"
             id="path4199" />
          <path
             d="m 567.00968,354.14215 q 3.04379,0 5.46215,0.50035 l -0.95901,6.42115 q -2.83531,-0.62544 -5.00349,-0.62544 -5.54554,0 -9.50664,4.50314 -3.9194,4.50315 -3.9194,11.21617 l 0,24.51712 -6.9215,0 0,-45.69858 5.71232,0 0.79222,8.46425 0.33357,0 q 2.54344,-4.46145 6.12928,-6.87981 3.58583,-2.41835 7.8805,-2.41835 z"
             style="font-style:normal;font-variant:normal;font-weight:normal;font-stretch:normal;font-size:85.39295197px;line-height:100%;font-family:'Open Sans';-inkscape-font-specification:'Open Sans';fill:#ffffff"
             id="path4201" />
          <path
             d="m 639.26846,400.67464 0,-29.72909 q 0,-5.46215 -2.33497,-8.17238 -2.33496,-2.75192 -7.25506,-2.75192 -6.46285,0 -9.54833,3.71093 -3.08549,3.71092 -3.08549,11.42464 l 0,25.51782 -6.9215,0 0,-29.72909 q 0,-5.46215 -2.33496,-8.17238 -2.33497,-2.75192 -7.29677,-2.75192 -6.50454,0 -9.54833,3.91941 -3.00209,3.8777 -3.00209,12.7589 l 0,23.97508 -6.9215,0 0,-45.69858 5.62893,0 1.12578,6.25437 0.33357,0 q 1.9597,-3.33566 5.50384,-5.21197 3.58584,-1.87631 8.00559,-1.87631 10.71582,0 14.00978,7.75541 l 0.33357,0 q 2.04309,-3.58583 5.9208,-5.67062 3.87771,-2.08479 8.8395,-2.08479 7.75542,0 11.59143,4.00279 3.87771,3.9611 3.87771,12.71721 l 0,29.81249 -6.9215,0 z"
             style="font-style:normal;font-variant:normal;font-weight:normal;font-stretch:normal;font-size:85.39295197px;line-height:100%;font-family:'Open Sans';-inkscape-font-specification:'Open Sans';fill:#ffffff"
             id="path4203" />
          <path
             d="m 689.88713,388.2076 q 0,6.37945 -4.75331,9.8402 -4.75332,3.46075 -13.34265,3.46075 -9.08968,0 -14.17657,-2.87701 l 0,-6.42115 q 3.29397,1.66783 7.04659,2.62684 3.79432,0.959 7.29676,0.959 5.42045,0 8.33916,-1.70953 2.9187,-1.75122 2.9187,-5.29536 0,-2.66853 -2.33496,-4.54484 -2.29327,-1.91801 -9.00629,-4.50314 -6.37946,-2.37666 -9.08968,-4.12789 -2.66853,-1.79292 -4.0028,-4.04449 -1.29256,-2.25157 -1.29256,-5.37875 0,-5.58724 4.54484,-8.79781 4.54484,-3.25227 12.46703,-3.25227 7.38016,0 14.42674,3.00209 l -2.46005,5.62893 q -6.8798,-2.83531 -12.46704,-2.83531 -4.9201,0 -7.42184,1.54274 -2.50175,1.54275 -2.50175,4.25297 0,1.83462 0.91731,3.12719 0.959,1.29257 3.04379,2.46005 2.08479,1.16748 8.00559,3.37736 8.13067,2.9604 10.96599,5.96249 2.877,3.0021 2.877,7.54694 z"
             style="font-style:normal;font-variant:normal;font-weight:normal;font-stretch:normal;font-size:85.39295197px;line-height:100%;font-family:'Open Sans';-inkscape-font-specification:'Open Sans';fill:#ffffff"
             id="path4205" />
          <path
             d="m 210.42738,491.96386 q 0,29.27044 -14.84369,46.03214 -14.76031,16.7617 -41.11204,16.7617 -26.93547,0 -41.61239,-16.42813 -14.593519,-16.51153 -14.593519,-46.53249 0,-29.77079 14.676909,-46.11553 14.67692,-16.42814 41.69578,-16.42814 26.26834,0 41.02865,16.67831 14.7603,16.67831 14.7603,46.03214 z m -97.15116,0 q 0,24.76729 10.50734,37.60959 10.59072,12.75891 30.68809,12.75891 20.26415,0 30.6047,-12.75891 10.34055,-12.7589 10.34055,-37.60959 0,-24.60051 -10.34055,-37.27602 -10.25716,-12.75891 -30.43792,-12.75891 -20.26415,0 -30.85487,12.8423 -10.50734,12.75891 -10.50734,37.19263 z"
             style="font-style:normal;font-variant:normal;font-weight:normal;font-stretch:normal;font-size:170.78590393px;line-height:100%;font-family:'Open Sans';-inkscape-font-specification:'Open Sans';fill:#ffffff"
             id="path4207" />
          <path
             d="m 278.14133,554.7577 q -8.9229,0 -16.34475,-3.25227 -7.33845,-3.33566 -12.34195,-10.17377 l -1.00069,0 q 1.00069,8.00559 1.00069,15.17727 l 0,37.60959 -13.84299,0 0,-132.42579 11.25786,0 1.918,12.50873 0.66713,0 q 5.33706,-7.50524 12.42535,-10.8409 7.08828,-3.33566 16.26135,-3.33566 18.17936,0 28.01956,12.42534 9.9236,12.42534 9.9236,34.85767 0,22.51572 -10.09038,35.02445 -10.00699,12.42534 -27.85278,12.42534 z m -2.0014,-82.97459 q -14.00978,0 -20.26415,7.75541 -6.25436,7.75542 -6.42115,24.6839 l 0,3.08549 q 0,19.26345 6.42115,27.6026 6.42115,8.25577 20.59772,8.25577 11.8416,0 18.51292,-9.59003 6.75472,-9.59003 6.75472,-26.43512 0,-17.09527 -6.75472,-26.18495 -6.67132,-9.17307 -18.84649,-9.17307 z"
             style="font-style:normal;font-variant:normal;font-weight:normal;font-stretch:normal;font-size:170.78590393px;line-height:100%;font-family:'Open Sans';-inkscape-font-specification:'Open Sans';fill:#ffffff"
             id="path4209" />
          <path
             d="m 378.96172,554.7577 q -20.26415,0 -32.02236,-12.34195 -11.67482,-12.34195 -11.67482,-34.27393 0,-22.09876 10.84091,-35.10784 10.92429,-13.00908 29.27043,-13.00908 17.17866,0 27.18565,11.34125 10.00698,11.25786 10.00698,29.77078 l 0,8.75612 -62.96062,0 q 0.41696,16.09457 8.08898,24.43372 7.75542,8.33916 21.7652,8.33916 14.7603,0 29.18704,-6.17098 l 0,12.34195 q -7.33846,3.16888 -13.92639,4.50315 -6.50454,1.41765 -15.761,1.41765 z m -3.75262,-83.14138 q -11.00769,0 -17.59562,7.17168 -6.50454,7.17167 -7.67202,19.84719 l 47.78336,0 q 0,-13.09248 -5.83741,-20.01398 -5.83741,-7.00489 -16.67831,-7.00489 z"
             style="font-style:normal;font-variant:normal;font-weight:normal;font-stretch:normal;font-size:170.78590393px;line-height:100%;font-family:'Open Sans';-inkscape-font-specification:'Open Sans';fill:#ffffff"
             id="path4211" />
          <path
             d="m 498.6286,553.08987 0,-59.12461 q 0,-11.17447 -5.08689,-16.67831 -5.08688,-5.50384 -15.92778,-5.50384 -14.34335,0 -21.01467,7.75541 -6.67133,7.75542 -6.67133,25.60121 l 0,47.95014 -13.843,0 0,-91.39714 11.25786,0 2.25158,12.50873 0.66713,0 q 4.25297,-6.75471 11.92499,-10.42394 7.67202,-3.75262 17.09527,-3.75262 16.51153,0 24.85068,8.00559 8.33916,7.92219 8.33916,25.43442 l 0,59.62496 -13.843,0 z"
             style="font-style:normal;font-variant:normal;font-weight:normal;font-stretch:normal;font-size:170.78590393px;line-height:100%;font-family:'Open Sans';-inkscape-font-specification:'Open Sans';fill:#ffffff"
             id="path4213" />
          <path
             d="m 554.66774,553.08987 -13.843,0 0,-91.39714 13.843,0 0,91.39714 z M 539.65726,436.92544 q 0,-4.75332 2.33496,-6.9215 2.33497,-2.25157 5.83741,-2.25157 3.33566,0 5.75402,2.25157 2.41835,2.25157 2.41835,6.9215 0,4.66992 -2.41835,7.00489 -2.41836,2.25157 -5.75402,2.25157 -3.50244,0 -5.83741,-2.25157 -2.33496,-2.33497 -2.33496,-7.00489 z"
             style="font-style:normal;font-variant:normal;font-weight:normal;font-stretch:normal;font-size:170.78590393px;line-height:100%;font-family:'Open Sans';-inkscape-font-specification:'Open Sans';fill:#ffffff"
             id="path4215" />
          <path
             d="m 646.73199,553.08987 0,-59.12461 q 0,-11.17447 -5.08688,-16.67831 -5.08689,-5.50384 -15.92779,-5.50384 -14.34335,0 -21.01467,7.75541 -6.67132,7.75542 -6.67132,25.60121 l 0,47.95014 -13.843,0 0,-91.39714 11.25786,0 2.25157,12.50873 0.66713,0 q 4.25297,-6.75471 11.92499,-10.42394 7.67203,-3.75262 17.09527,-3.75262 16.51153,0 24.85069,8.00559 8.33915,7.92219 8.33915,25.43442 l 0,59.62496 -13.843,0 z"
             style="font-style:normal;font-variant:normal;font-weight:normal;font-stretch:normal;font-size:170.78590393px;line-height:100%;font-family:'Open Sans';-inkscape-font-specification:'Open Sans';fill:#ffffff"
             id="path4217" />
          <path
             d="m 763.73036,461.69273 0,8.75611 -16.92849,2.0014 q 2.33497,2.9187 4.16958,7.67202 1.83462,4.66993 1.83462,10.59073 0,13.42604 -9.17308,21.43163 -9.17307,8.00559 -25.18425,8.00559 -4.08618,0 -7.67202,-0.66713 -8.8395,4.66992 -8.8395,11.7582 0,3.75262 3.08548,5.58724 3.08549,1.75122 10.59073,1.75122 l 16.17796,0 q 14.8437,0 22.7659,6.25437 8.00559,6.25436 8.00559,18.17936 0,15.17726 -12.17517,23.09946 -12.17517,8.00559 -35.5248,8.00559 -17.92919,0 -27.686,-6.67133 -9.67342,-6.67132 -9.67342,-18.84649 0,-8.33915 5.33706,-14.42674 5.33706,-6.08758 15.01048,-8.25576 -3.50244,-1.58444 -5.9208,-4.9201 -2.33496,-3.33567 -2.33496,-7.75542 0,-5.00349 2.66853,-8.75611 2.66853,-3.75262 8.42254,-7.25507 -7.08828,-2.9187 -11.59142,-9.92359 -4.41975,-7.00489 -4.41975,-16.01118 0,-15.01048 9.00628,-23.09946 9.00629,-8.17237 25.51782,-8.17237 7.17167,0 12.92569,1.66783 l 31.6054,0 z m -72.88422,106.74119 q 0,7.42185 6.25437,11.25786 6.25436,3.83601 17.92918,3.83601 17.42884,0 25.76799,-5.25367 8.42255,-5.17028 8.42255,-14.09317 0,-7.42185 -4.58654,-10.34055 -4.58653,-2.83532 -17.26205,-2.83532 l -16.59492,0 q -9.42324,0 -14.67691,4.50315 -5.25367,4.50314 -5.25367,12.92569 z m 7.50524,-77.47076 q 0,9.59003 5.42045,14.51013 5.42045,4.92011 15.09387,4.92011 20.26415,0 20.26415,-19.68041 0,-20.59772 -20.51432,-20.59772 -9.75681,0 -15.01048,5.25367 -5.25367,5.25367 -5.25367,15.59422 z"
             style="font-style:normal;font-variant:normal;font-weight:normal;font-stretch:normal;font-size:170.78590393px;line-height:100%;font-family:'Open Sans';-inkscape-font-specification:'Open Sans';fill:#ffffff"
             id="path4219" />
          <path
             d="m 868.22,472.45024 -23.26625,0 0,80.63963 -13.84299,0 0,-80.63963 -16.34475,0 0,-6.25437 16.34475,-5.00349 0,-5.08689 q 0,-33.69018 29.43721,-33.69018 7.25507,0 17.01188,2.9187 l -3.58583,11.09108 q -8.00559,-2.58514 -13.67622,-2.58514 -7.83881,0 -11.59143,5.25367 -3.75262,5.17027 -3.75262,16.67831 l 0,5.9208 23.26625,0 0,10.75751 z m 30.52131,80.63963 -13.843,0 0,-91.39714 13.843,0 0,91.39714 z M 883.73083,436.92544 q 0,-4.75332 2.33496,-6.9215 2.33496,-2.25157 5.83741,-2.25157 3.33566,0 5.75402,2.25157 2.41835,2.25157 2.41835,6.9215 0,4.66992 -2.41835,7.00489 -2.41836,2.25157 -5.75402,2.25157 -3.50245,0 -5.83741,-2.25157 -2.33496,-2.33497 -2.33496,-7.00489 z"
             style="font-style:normal;font-variant:normal;font-weight:normal;font-stretch:normal;font-size:170.78590393px;line-height:100%;font-family:'Open Sans';-inkscape-font-specification:'Open Sans';fill:#ffffff"
             id="path4221" />
          <path
             d="m 941.93812,553.08987 -13.84299,0 0,-129.75726 13.84299,0 0,129.75726 z"
             style="font-style:normal;font-variant:normal;font-weight:normal;font-stretch:normal;font-size:170.78590393px;line-height:100%;font-family:'Open Sans';-inkscape-font-specification:'Open Sans';fill:#ffffff"
             id="path4223" />
          <path
             d="m 1010.069,554.7577 q -20.26415,0 -32.02235,-12.34195 -11.67482,-12.34195 -11.67482,-34.27393 0,-22.09876 10.8409,-35.10784 10.92429,-13.00908 29.27047,-13.00908 17.1786,0 27.1856,11.34125 10.007,11.25786 10.007,29.77078 l 0,8.75612 -62.96062,0 q 0.41695,16.09457 8.08898,24.43372 7.75541,8.33916 21.76524,8.33916 14.7603,0 29.187,-6.17098 l 0,12.34195 q -7.3385,3.16888 -13.9264,4.50315 -6.5045,1.41765 -15.761,1.41765 z m -3.7526,-83.14138 q -11.0077,0 -17.59564,7.17168 -6.50454,7.17167 -7.67202,19.84719 l 47.78336,0 q 0,-13.09248 -5.8374,-20.01398 -5.8374,-7.00489 -16.6783,-7.00489 z"
             style="font-style:normal;font-variant:normal;font-weight:normal;font-stretch:normal;font-size:170.78590393px;line-height:100%;font-family:'Open Sans';-inkscape-font-specification:'Open Sans';fill:#ffffff"
             id="path4225" />
          <path
             d="m 1126.1501,528.1558 q 0,12.7589 -9.5067,19.6804 -9.5066,6.9215 -26.6853,6.9215 -18.1793,0 -28.3531,-5.75401 l 0,-12.8423 q 6.5879,3.33566 14.0932,5.25366 7.5886,1.91801 14.5935,1.91801 10.8409,0 16.6783,-3.41905 5.8374,-3.50245 5.8374,-10.59073 0,-5.33706 -4.6699,-9.08968 -4.5865,-3.83601 -18.0126,-9.00629 -12.7589,-4.75332 -18.1793,-8.25576 -5.3371,-3.58584 -8.0056,-8.08898 -2.5852,-4.50315 -2.5852,-10.75751 0,-11.17447 9.0897,-17.59562 9.0897,-6.50454 24.9341,-6.50454 14.7603,0 28.8535,6.00419 l -4.9201,11.25786 q -13.7597,-5.67063 -24.9341,-5.67063 -9.8402,0 -14.8437,3.08549 -5.0035,3.08549 -5.0035,8.50594 0,3.66923 1.8346,6.25437 1.918,2.58513 6.0876,4.9201 4.1696,2.33496 16.0112,6.75471 16.2613,5.9208 21.9319,11.925 5.7541,6.00419 5.7541,15.09387 z"
             style="font-style:normal;font-variant:normal;font-weight:normal;font-stretch:normal;font-size:170.78590393px;line-height:100%;font-family:'Open Sans';-inkscape-font-specification:'Open Sans';fill:#ffffff"
             id="path4227" />
        </g>
      </g>
    </g>
  </g>
</svg>
