<?xml version="1.0" encoding="UTF-8" standalone="no"?>
<!-- Created with Inkscape (http://www.inkscape.org/) -->

<svg
   xmlns:dc="http://purl.org/dc/elements/1.1/"
   xmlns:cc="http://creativecommons.org/ns#"
   xmlns:rdf="http://www.w3.org/1999/02/22-rdf-syntax-ns#"
   xmlns:svg="http://www.w3.org/2000/svg"
   xmlns="http://www.w3.org/2000/svg"
   xmlns:sodipodi="http://sodipodi.sourceforge.net/DTD/sodipodi-0.dtd"
   xmlns:inkscape="http://www.inkscape.org/namespaces/inkscape"
   width="1200"
   height="630"
   viewBox="0 0 1200.0001 630.00001"
   id="svg2"
   version="1.1"
   inkscape:version="0.91 r13725"
   sodipodi:docname="featured.svg"
   inkscape:export-filename="/home/fferegrino/Documents/github/that-c-sharp-guy/postimages/opening-files-xamarin-forms/featured.png"
   inkscape:export-xdpi="90"
   inkscape:export-ydpi="90">
  <defs
     id="defs4" />
  <sodipodi:namedview
     id="base"
     pagecolor="#ffffff"
     bordercolor="#666666"
     borderopacity="1.0"
     inkscape:pageopacity="0.0"
     inkscape:pageshadow="2"
     inkscape:zoom="0.5"
     inkscape:cx="635.01129"
     inkscape:cy="105.62071"
     inkscape:document-units="px"
     inkscape:current-layer="layer1"
     showgrid="false"
     units="px"
     inkscape:window-width="1301"
     inkscape:window-height="744"
     inkscape:window-x="65"
     inkscape:window-y="24"
     inkscape:window-maximized="1"
     borderlayer="true" />
  <metadata
     id="metadata7">
    <rdf:RDF>
      <cc:Work
         rdf:about="">
        <dc:format>image/svg+xml</dc:format>
        <dc:type
           rdf:resource="http://purl.org/dc/dcmitype/StillImage" />
        <dc:title />
      </cc:Work>
    </rdf:RDF>
  </metadata>
  <g
     inkscape:label="Capa 1"
     inkscape:groupmode="layer"
     id="layer1"
     transform="translate(0,-422.36232)"
     style="display:inline">
    <rect
       y="-65.907944"
       x="-1106.3623"
       height="1287.8159"
       width="272.65973"
       id="rect3348"
       style="fill:#002255"
       transform="matrix(0,-1,1,0,0,0)" />
    <rect
       style="fill:#0044aa"
       id="rect3350"
       width="227.21461"
       height="1287.8159"
       x="-833.72131"
       y="-65.907944"
       transform="matrix(0,-1,1,0,0,0)" />
    <rect
       y="-65.907944"
       x="-617.43848"
       height="1287.8159"
       width="243.41621"
       id="rect3352"
       style="fill:#0066ff"
       transform="matrix(0,-1,1,0,0,0)" />
  </g>
  <g
     inkscape:groupmode="layer"
     id="layer2"
     inkscape:label="Mobile"
     style="display:inline" />
  <g
     inkscape:groupmode="layer"
     id="layer3"
     inkscape:label="Arrow"
     style="display:inline" />
  <g
     inkscape:groupmode="layer"
     id="layer4"
     inkscape:label="File"
     style="display:inline">
    <g
       id="g3531"
       transform="translate(68.686556,0)">
      <g
         id="g4240"
         transform="translate(-75.84961,0)">
        <g
           style="display:inline"
           id="g3387"
           transform="matrix(0.75082856,0,0,0.75082856,186.64246,-35.268836)">
          <rect
             y="164.99232"
             x="742.43152"
             height="300.01529"
             width="220.21326"
             id="rect3355"
             style="fill:#5599ff" />
          <rect
             y="128.96431"
             x="787.91901"
             height="27.274118"
             width="140.41121"
             id="rect3357"
             style="fill:#1f241c" />
          <rect
             y="458.27405"
             x="793.97992"
             height="63.63961"
             width="120.20815"
             id="rect3359"
             style="fill:#b7c8b7" />
          <path
             style="fill:#ffffff"
             d="m 653.97461,99.9375 c -11.64922,0 -21.72929,4.25665 -30.24219,12.76953 -8.5129,8.51291 -12.76953,18.59297 -12.76953,30.24219 l 0,140.22881 32.25977,0 0,-86.46319 c 0,-2.91231 1.06317,-5.43232 3.1914,-7.56054 2.12821,-2.12822 4.64824,-3.19141 7.56055,-3.19141 l 172.05078,0 c 2.91231,0 5.43235,1.06319 7.56055,3.19141 2.12824,2.12822 3.1914,4.64823 3.1914,7.56054 l 0,236.57032 c 0,2.91236 -1.06316,5.4324 -3.1914,7.56054 -2.1282,2.12833 -4.64824,3.19141 -7.56055,3.19141 l -172.05078,0 c -2.91231,0 -5.43234,-1.06308 -7.56055,-3.19141 -2.12823,-2.12814 -3.1914,-4.64818 -3.1914,-7.56054 l 0,-86.43912 -32.25977,0 0,140.20474 c 0,11.64917 4.25663,21.72924 12.76953,30.24219 8.5129,8.51291 18.59297,12.76953 30.24219,12.76953 l 172.05078,0 c 11.64923,0 21.72929,-4.25662 30.24219,-12.76953 8.5129,-8.51295 12.76953,-18.59302 12.76953,-30.24219 l 0,-344.10156 c 0,-11.64922 -4.25663,-21.72928 -12.76953,-30.24219 -8.5129,-8.51288 -18.59296,-12.76953 -30.24219,-12.76953 z m 59.14258,43.01172 53.76562,0 c 3.58439,0 5.37696,1.79258 5.37696,5.37695 0,3.58437 -1.79257,5.37695 -5.37696,5.37695 l -53.76562,0 c -3.58433,0 -5.37696,-1.79258 -5.37696,-5.37695 0,-3.58437 1.79263,-5.37695 5.37696,-5.37695 z M 740,460.16797 c 7.39278,0 13.7218,2.63189 18.98633,7.89648 5.26457,5.26452 7.89648,11.59351 7.89648,18.98633 0,7.39277 -2.63191,13.7198 -7.89648,18.98438 -5.26453,5.26457 -11.59355,7.89843 -18.98633,7.89843 -7.39283,0 -13.72181,-2.63386 -18.98633,-7.89843 -5.26457,-5.26458 -7.89648,-11.59161 -7.89648,-18.98438 0,-7.39282 2.63191,-13.72181 7.89648,-18.98633 5.26452,-5.26459 11.5935,-7.89648 18.98633,-7.89648 z"
             id="path3360"
             inkscape:connector-curvature="0"
             sodipodi:nodetypes="sssccssssssscsscsccssssssssssssssssssssssssss"
             transform="translate(112.53814,-2.7550931e-5)" />
        </g>
        <path
           inkscape:connector-curvature="0"
           style="display:inline;fill:#ffffff"
           d="m 832.2952,200.86678 c 0,1.19539 -0.42693,2.22 -1.28077,3.07385 l -49.18166,45.33933 c -1.36615,1.19539 -2.86037,1.45155 -4.48269,0.76846 -1.62232,-0.76846 -2.43348,-2.00654 -2.43348,-3.71424 l 0,-28.68929 -294.9895,0 c -1.19539,0 -2.17731,-0.38424 -2.94577,-1.1527 -0.76847,-0.76847 -1.15271,-1.75038 -1.15271,-2.94577 l 0,-24.59082 c 0,-1.19539 0.38424,-2.17731 1.15271,-2.94578 0.76846,-0.76847 1.75038,-1.1527 2.94577,-1.1527 l 294.9895,0 0,-28.68928 c 0,-1.79308 0.81116,-3.03116 2.43348,-3.71425 1.62232,-0.68307 3.11654,-0.46961 4.48269,0.64039 l 49.18166,44.82701 c 0.85384,0.85386 1.28077,1.83579 1.28077,2.94579 z"
           id="path3363"
           sodipodi:nodetypes="scccscsssssscssccs" />
        <path
           inkscape:connector-curvature="0"
           style="fill:#ffffff"
           d="m 409.52822,171.77901 0,-36.21511 q 1.688,1.07419 2.76216,2.14836 l 31.30458,31.30458 q 1.0742,1.07417 2.14836,2.76217 l -36.2151,0 z m -9.82105,2.45526 q 0,3.06907 2.14836,5.21743 2.14834,2.14836 5.21743,2.14836 l 41.73944,0 0,81.02361 q 0,3.06907 -2.14835,5.21743 -2.14835,2.14835 -5.21743,2.14835 l -103.12098,0 q -3.06908,0 -5.21742,-2.14835 -2.14836,-2.14836 -2.14836,-5.21743 l 0,-122.76306 q 0,-3.06907 2.14836,-5.21742 2.14834,-2.14836 5.21742,-2.14836 l 61.38153,0 0,41.73944 z"
           id="path3425" />
        <flowRoot
           style="font-style:normal;font-weight:normal;font-size:37.95241928px;line-height:125%;font-family:sans-serif;letter-spacing:0px;word-spacing:0px;fill:#000000;fill-opacity:1;stroke:none;stroke-width:1px;stroke-linecap:butt;stroke-linejoin:miter;stroke-opacity:1"
           id="flowRoot3493"
           xml:space="preserve"><flowRegion
             id="flowRegion3495"><rect
               y="333.65137"
               x="87.841957"
               height="330.08789"
               width="1147.2567"
               id="rect3497" /></flowRegion><flowPara
             style="font-style:normal;font-variant:normal;font-weight:normal;font-stretch:normal;font-size:85.39295197px;line-height:100%;font-family:'Open Sans';-inkscape-font-specification:'Open Sans';fill:#ffffff"
             id="flowPara3499">Xamarin.Forms</flowPara><flowPara
             id="flowPara3503"
             style="font-style:normal;font-variant:normal;font-weight:normal;font-stretch:normal;font-size:170.78590393px;line-height:100%;font-family:'Open Sans';-inkscape-font-specification:'Open Sans';fill:#ffffff">Opening files</flowPara><flowPara
             style="font-style:normal;font-variant:normal;font-weight:normal;font-stretch:normal;font-size:170.78590393px;line-height:137.00000048%;font-family:'Open Sans';-inkscape-font-specification:'Open Sans';fill:#ffffff"
             id="flowPara3501" /></flowRoot>      </g>
    </g>
  </g>
</svg>
