<?xml version="1.0" encoding="UTF-8" standalone="no"?>
<!-- Created with Inkscape (http://www.inkscape.org/) -->

<svg
   xmlns:sketch="http://www.bohemiancoding.com/sketch/ns"
   xmlns:dc="http://purl.org/dc/elements/1.1/"
   xmlns:cc="http://creativecommons.org/ns#"
   xmlns:rdf="http://www.w3.org/1999/02/22-rdf-syntax-ns#"
   xmlns:svg="http://www.w3.org/2000/svg"
   xmlns="http://www.w3.org/2000/svg"
   xmlns:sodipodi="http://sodipodi.sourceforge.net/DTD/sodipodi-0.dtd"
   xmlns:inkscape="http://www.inkscape.org/namespaces/inkscape"
   width="1200"
   height="630"
   viewBox="0 0 1200 630.00001"
   id="svg2"
   version="1.1"
   inkscape:version="0.91 r13725"
   enable-background="new"
   sodipodi:docname="featured.svg">
  <defs
     id="defs4">
    <filter
       inkscape:collect="always"
       style="color-interpolation-filters:sRGB"
       id="filter4387">
      <feBlend
         inkscape:collect="always"
         mode="lighten"
         in2="BackgroundImage"
         id="feBlend4389" />
    </filter>
  </defs>
  <sodipodi:namedview
     id="base"
     pagecolor="#000000"
     bordercolor="#666666"
     borderopacity="1.0"
     inkscape:pageopacity="0"
     inkscape:pageshadow="2"
     inkscape:zoom="0.49497475"
     inkscape:cx="679.11881"
     inkscape:cy="248.70126"
     inkscape:document-units="px"
     inkscape:current-layer="layer5"
     showgrid="false"
     units="px"
     inkscape:window-width="1301"
     inkscape:window-height="744"
     inkscape:window-x="65"
     inkscape:window-y="24"
     inkscape:window-maximized="1"
     showguides="true"
     inkscape:guide-bbox="true">
    <sodipodi:guide
       position="0,315"
       orientation="0,1"
       id="guide4327"
       inkscape:label=""
       inkscape:color="rgb(0,0,255)" />
    <sodipodi:guide
       position="0,462.00001"
       orientation="0,1"
       id="guide4329"
       inkscape:label=""
       inkscape:color="rgb(0,0,255)" />
    <sodipodi:guide
       position="0,157"
       orientation="0,1"
       id="guide4331"
       inkscape:label=""
       inkscape:color="rgb(0,0,255)" />
  </sodipodi:namedview>
  <metadata
     id="metadata7">
    <rdf:RDF>
      <cc:Work
         rdf:about="">
        <dc:format>image/svg+xml</dc:format>
        <dc:type
           rdf:resource="http://purl.org/dc/dcmitype/StillImage" />
        <dc:title></dc:title>
      </cc:Work>
    </rdf:RDF>
  </metadata>
  <g
     inkscape:label="Backgrund"
     inkscape:groupmode="layer"
     id="layer1"
     transform="translate(0,-422.36216)"
     sodipodi:insensitive="true">
    <rect
       style="fill:#3498db;fill-opacity:1;fill-rule:evenodd;stroke:#000000;stroke-width:0.91132289px;stroke-linecap:butt;stroke-linejoin:miter;stroke-opacity:1"
       id="rect3415"
       width="1199.0887"
       height="629.08868"
       x="0.45566145"
       y="422.81781" />
  </g>
  <g
     inkscape:groupmode="layer"
     id="layer3"
     inkscape:label="Second background"
     sodipodi:insensitive="true"
     style="display:inline">
    <rect
       transform="matrix(1.9742254,0,0,1.9742254,26.22815,-18.955306)"
       style="fill:#0078d7;fill-opacity:1"
       id="rect4325"
       width="607.83331"
       height="159.55624"
       x="-13.285287"
       y="169.15764" />
  </g>
  <g
     inkscape:groupmode="layer"
     id="layer5"
     inkscape:label="4"
     style="opacity:0.95;filter:url(#filter4387)">
    <g
       transform="matrix(1.8770715,0,0,1.8770715,-881.25941,-13.103913)"
       style="font-style:normal;font-weight:normal;font-size:40px;line-height:125%;font-family:sans-serif;letter-spacing:0px;word-spacing:0px;fill:#ffffff;fill-opacity:0.07843137;stroke:none;stroke-width:1px;stroke-linecap:butt;stroke-linejoin:miter;stroke-opacity:1"
       id="flowRoot4359">
      <path
         d="m 504.71582,20.192366 -138.20801,215.983884 138.20801,0 0,-215.983884 z m -14.36279,-47.695312 68.83301,0 0,263.679196 57.72216,0 0,45.52735 -57.72216,0 0,95.39062 -54.47022,0 0,-95.39062 -182.65137,0 0,-52.84424 168.28858,-256.362306 z"
         style="font-style:normal;font-variant:normal;font-weight:normal;font-stretch:normal;font-size:555px;font-family:'DejaVu Sans';-inkscape-font-specification:'DejaVu Sans';fill:#ffffff;fill-opacity:0.07843137"
         id="path4471" />
    </g>
    <g
       transform="matrix(1.8770715,0,0,1.8770715,318.74059,-13.103913)"
       style="font-style:normal;font-weight:normal;font-size:40px;line-height:125%;font-family:sans-serif;letter-spacing:0px;word-spacing:0px;fill:#ffffff;fill-opacity:0.07843137;stroke:none;stroke-width:1px;stroke-linecap:butt;stroke-linejoin:miter;stroke-opacity:1"
       id="flowRoot4367">
      <path
         d="m 504.71582,20.192366 -138.20801,215.983884 138.20801,0 0,-215.983884 z m -14.36279,-47.695312 68.83301,0 0,263.679196 57.72216,0 0,45.52735 -57.72216,0 0,95.39062 -54.47022,0 0,-95.39062 -182.65137,0 0,-52.84424 168.28858,-256.362306 z"
         style="font-style:normal;font-variant:normal;font-weight:normal;font-stretch:normal;font-size:555px;font-family:'DejaVu Sans';-inkscape-font-specification:'DejaVu Sans';fill:#ffffff;fill-opacity:0.07843137"
         id="path4468" />
    </g>
  </g>
  <g
     inkscape:groupmode="layer"
     id="layer2"
     inkscape:label="Xamarin name"
     sodipodi:insensitive="true">
    <g
       transform="matrix(1.9742254,0,0,1.9742254,26.22815,-18.955306)"
       id="xamarin-logo"
       sketch:type="MSArtboardGroup"
       style="fill:#ffffff" />
    <path
       transform="matrix(1.9742254,0,0,1.9742254,26.22815,-18.955306)"
       inkscape:connector-curvature="0"
       d="m 254.19665,118.07983 -9.49263,-18.214228 -9.70933,18.214228 -10.44053,0 14.80317,-23.507478 -13.32197,-23.362749 10.58502,0 8.64352,17.749797 9.36622,-17.749797 9.68192,0 -13.68326,23.218019 13.89994,23.652208 -10.33207,0 z m 33.849,0 0,-5.1012 -0.14461,0 c -2.57703,4.00378 -6.22573,6.00566 -10.94631,6.00566 -3.63672,0 -6.50274,-0.98887 -8.59805,-2.96663 -2.09532,-2.0019 -3.14303,-4.67913 -3.14303,-8.03168 0,-7.18752 4.03417,-11.275688 12.10237,-12.264608 l 10.80181,-1.48332 c 0,-5.040881 -2.33617,-7.561307 -7.00851,-7.561353 -4.45555,4.6e-5 -8.54993,1.374822 -12.28301,4.124384 l 0,-7.380466 c 1.39691,-0.844135 3.39586,-1.603889 5.99696,-2.279273 2.62526,-0.675293 5.00956,-1.012956 7.15311,-1.013002 9.53732,4.6e-5 14.30591,4.82388 14.30603,14.4715 l 0,23.479988 -8.23687,0 1.1e-4,0 z m -7.91174,-16.96782 c -2.48067,0.31357 -4.22678,0.92861 -5.23835,1.84511 -0.98749,0.89242 -1.48118,2.27927 -1.48118,4.16057 0,1.54362 0.56599,2.8099 1.69799,3.79877 1.13187,0.96475 2.61306,1.44714 4.44345,1.44714 2.48067,0 4.52785,-0.85624 6.14156,-2.56869 1.6136,-1.71246 2.42045,-3.84699 2.42045,-6.40364 l 0,-3.32845 -7.98392,1.04919 0,0 z m 69.41291,16.96782 0,-20.911318 c -1.2e-4,-3.449 -0.54194,-6.005632 -1.62569,-7.669861 -1.0598,-1.688317 -2.9625,-2.532499 -5.70796,-2.532534 -2.1918,3.5e-5 -4.03417,1.013037 -5.52733,3.039017 -1.49329,2.001928 -2.23992,4.425898 -2.23992,7.271928 l 0,20.802768 -8.3451,0 0,-21.634878 c -1.2e-4,-6.319195 -2.42057,-9.4788 -7.26147,-9.478835 -2.26387,3.5e-5 -4.13041,0.952743 -5.59963,2.858136 -1.44504,1.905439 -2.1675,4.389699 -2.1675,7.452809 l 0,20.802768 -8.34522,0 0,-37.047002 8.34522,0 0,5.716237 0.14449,0 c 2.6734,-4.413769 6.57504,-6.620677 11.70504,-6.620723 2.45649,4.6e-5 4.62411,0.651262 6.50274,1.953671 1.90258,1.278334 3.23928,3.05109 4.00998,5.318257 2.81789,-4.84791 6.9604,-7.271882 12.42751,-7.271928 8.04402,4.6e-5 12.06609,5.016833 12.06621,15.05037 l 0,22.901118 -8.38137,0 0,0 z m 36.12495,0 0,-5.1012 -0.14461,0 c -2.57703,4.00378 -6.22584,6.00566 -10.94631,6.00566 -3.63672,0 -6.50273,-0.98887 -8.59804,-2.96663 -2.09531,-2.0019 -3.14303,-4.67913 -3.14303,-8.03168 0,-7.18752 4.03416,-11.275688 12.10237,-12.264608 l 10.80182,-1.48332 c 0,-5.040881 -2.33618,-7.561307 -7.00852,-7.561353 -4.45567,4.6e-5 -8.54993,1.374822 -12.28302,4.124384 l 0,-7.380466 c 1.39692,-0.844135 3.39587,-1.603889 5.99696,-2.279273 2.62515,-0.675293 5.00957,-1.012956 7.15302,-1.013002 9.53741,4.6e-5 14.30602,4.82388 14.30613,14.4715 l 0,23.479988 -8.23688,0 1.1e-4,0 z m -7.91174,-16.96782 c -2.48078,0.31357 -4.22678,0.92861 -5.23833,1.84511 -0.98751,0.89242 -1.4812,2.27927 -1.4812,4.16057 0,1.54362 0.566,2.8099 1.69799,3.79877 1.13188,0.96475 2.61307,1.44714 4.44346,1.44714 2.48067,0 4.52786,-0.85624 6.14156,-2.56869 1.6136,-1.71246 2.42046,-3.84699 2.42046,-6.40364 l 0,-3.32845 -7.98394,1.04919 0,0 z m 44.10244,-11.938984 c -1.37273,-0.844147 -2.98644,-1.266215 -4.8409,-1.266238 -2.40847,2.3e-5 -4.37127,1.037147 -5.88862,3.11136 -1.49316,2.074274 -2.23981,4.775624 -2.23981,8.104034 l 0,18.957648 -8.3452,0 0,-37.047002 8.3452,0 0,7.19955 0.14463,0 c 1.78213,-5.233805 4.93726,-7.850731 9.4651,-7.850778 1.46911,4.7e-5 2.58901,0.168844 3.35972,0.506519 l 0,8.284907 -1.2e-4,0 z m 8.30769,-16.425115 c -1.42099,2.3e-5 -2.62516,-0.458228 -3.61267,-1.37481 -0.98738,-0.940578 -1.48107,-2.086263 -1.48107,-3.436975 0,-1.398862 0.49369,-2.568646 1.48107,-3.509316 0.98751,-0.940624 2.19168,-1.410936 3.61267,-1.410994 1.44504,5.8e-5 2.66131,0.482455 3.6488,1.447166 0.98739,0.940681 1.4812,2.098404 1.4812,3.473144 0,1.350712 -0.49381,2.496397 -1.4812,3.436975 -0.98749,0.916582 -2.20376,1.374833 -3.6488,1.37481 z m -4.26293,45.331919 0,-37.047002 8.34521,0 0,37.047002 -8.34521,0 z m 39.88521,0 0,-20.802768 c 0,-6.873924 -2.46869,-10.31091 -7.40585,-10.310945 -2.48077,3.5e-5 -4.564,0.952743 -6.2499,2.858136 -1.66183,1.881317 -2.49275,4.281179 -2.49275,7.199549 l 0,21.056028 -8.34522,0 0,-37.047002 8.34522,0 0,5.933289 0.14461,0 c 2.69747,-4.558478 6.69535,-6.837729 11.99391,-6.837775 8.23687,4.6e-5 12.3552,5.065043 12.35532,15.19508 l 0,22.756408 -8.34522,0 -1.2e-4,0 z M 134.20672,52.540713 c -2.5349,0.0054 -5.01628,1.448161 -6.29236,3.649159 l -19.84722,34.569567 c -1.25621,2.206893 -1.25621,5.091453 0,7.298343 l 19.84722,34.569578 c 1.27621,2.20102 3.75746,3.64417 6.29236,3.64916 l 39.6943,0 c 2.53489,-0.006 5.01613,-1.44814 6.29235,-3.64916 l 19.84721,-34.569578 c 1.25621,-2.20689 1.25609,-5.09145 0,-7.298343 L 180.19337,56.189872 c -1.27622,-2.200998 -3.75746,-3.644174 -6.29235,-3.649159 l -39.6943,0 z m 0.36022,20.223615 c 0.0546,-0.0054 0.11172,-0.0054 0.16642,0 l 6.84667,0 c 0.30308,0.0063 0.59705,0.18191 0.7484,0.445691 l 11.61456,20.752893 c 0.0584,0.10261 0.0961,0.21693 0.11042,0.33427 0.0143,-0.11737 0.0519,-0.23169 0.11042,-0.33427 l 11.58676,-20.752893 c 0.15614,-0.271776 0.46389,-0.448368 0.77606,-0.445691 l 6.84668,0 c 0.60628,0.0054 1.0603,0.771072 0.7762,1.309246 l -11.3372,20.335048 11.3372,20.307188 c 0.311,0.54127 -0.1542,1.34245 -0.7762,1.3371 l -6.84668,0 c -0.31762,-0.003 -0.62719,-0.19151 -0.77606,-0.47355 L 154.16383,94.826452 c -0.0584,-0.10261 -0.0961,-0.21694 -0.11042,-0.33427 -0.0143,0.11736 -0.0519,0.23171 -0.11042,0.33427 l -11.61456,20.752908 c -0.14445,0.27406 -0.44,0.46107 -0.7484,0.47355 l -6.84667,0 c -0.62199,0.006 -1.08708,-0.79583 -0.77608,-1.3371 L 145.29449,94.408622 133.95728,74.073574 c -0.27176,-0.491021 0.0598,-1.204439 0.60966,-1.309246 l 0,0 z"
       id="Logo"
       sketch:type="MSShapeGroup"
       style="fill:#ffffff" />
  </g>
  <g
     inkscape:groupmode="layer"
     id="layer4"
     inkscape:label="UWP"
     style="display:inline"
     sodipodi:insensitive="true">
    <g
       style="font-style:normal;font-weight:normal;font-size:40px;line-height:125%;font-family:sans-serif;text-align:center;letter-spacing:0px;word-spacing:0px;text-anchor:middle;fill:#000000;fill-opacity:1;stroke:none;stroke-width:1px;stroke-linecap:butt;stroke-linejoin:miter;stroke-opacity:1"
       id="flowRoot4338">
      <path
         d="m 268.73539,457.94311 q -6.12,0 -10.62,-1.89 -4.5,-1.89 -7.38,-5.13 -2.88,-3.33 -4.32,-7.83 -1.35,-4.5 -1.35,-9.72 l 0,-39.15 8.73,0 0,38.16 q 0,9.36 4.14,13.59 4.14,4.23 10.8,4.23 3.33,0 6.03,-0.99 2.79,-1.08 4.77,-3.24 1.98,-2.16 3.06,-5.49 1.08,-3.42 1.08,-8.1 l 0,-38.16 8.73,0 0,39.15 q 0,5.22 -1.44,9.72 -1.35,4.5 -4.32,7.83 -2.88,3.24 -7.38,5.13 -4.41,1.89 -10.53,1.89 z"
         style="font-style:normal;font-variant:normal;font-weight:normal;font-stretch:normal;font-size:90px;font-family:Ubuntu;-inkscape-font-specification:Ubuntu;fill:#ffffff"
         id="path4411"
         inkscape:connector-curvature="0" />
      <path
         d="m 306.85039,411.14311 q 2.88,-0.72 7.65,-1.53 4.77,-0.81 10.98,-0.81 5.58,0 9.27,1.62 3.69,1.53 5.85,4.41 2.25,2.79 3.15,6.75 0.9,3.96 0.9,8.73 l 0,26.28 -8.37,0 0,-24.48 q 0,-4.32 -0.63,-7.38 -0.54,-3.06 -1.89,-4.95 -1.35,-1.89 -3.6,-2.7 -2.25,-0.9 -5.58,-0.9 -1.35,0 -2.79,0.09 -1.44,0.09 -2.79,0.27 -1.26,0.09 -2.34,0.27 -0.99,0.18 -1.44,0.27 l 0,39.51 -8.37,0 0,-45.45 z"
         style="font-style:normal;font-variant:normal;font-weight:normal;font-stretch:normal;font-size:90px;font-family:Ubuntu;-inkscape-font-specification:Ubuntu;fill:#ffffff"
         id="path4413"
         inkscape:connector-curvature="0" />
      <path
         d="m 366.90008,456.59311 -8.37,0 0,-46.8 8.37,0 0,46.8 z m -4.23,-55.26 q -2.25,0 -3.87,-1.44 -1.53,-1.53 -1.53,-4.05 0,-2.52 1.53,-3.96 1.62,-1.53 3.87,-1.53 2.25,0 3.78,1.53 1.62,1.44 1.62,3.96 0,2.52 -1.62,4.05 -1.53,1.44 -3.78,1.44 z"
         style="font-style:normal;font-variant:normal;font-weight:normal;font-stretch:normal;font-size:90px;font-family:Ubuntu;-inkscape-font-specification:Ubuntu;fill:#ffffff"
         id="path4415"
         inkscape:connector-curvature="0" />
      <path
         d="m 417.92164,409.79311 q -3.51,13.14 -8.28,25.2 -4.68,12.06 -9.09,21.6 l -7.56,0 q -4.41,-9.54 -9.18,-21.6 -4.68,-12.06 -8.19,-25.2 l 9,0 q 1.08,4.41 2.52,9.45 1.53,4.95 3.15,9.9 1.71,4.86 3.42,9.45 1.71,4.59 3.24,8.19 1.53,-3.6 3.24,-8.19 1.71,-4.59 3.33,-9.45 1.71,-4.95 3.15,-9.9 1.53,-5.04 2.61,-9.45 l 8.64,0 z"
         style="font-style:normal;font-variant:normal;font-weight:normal;font-stretch:normal;font-size:90px;font-family:Ubuntu;-inkscape-font-specification:Ubuntu;fill:#ffffff"
         id="path4417"
         inkscape:connector-curvature="0" />
      <path
         d="m 422.71695,433.28311 q 0,-6.21 1.8,-10.8 1.8,-4.68 4.77,-7.74 2.97,-3.06 6.84,-4.59 3.87,-1.53 7.92,-1.53 9.45,0 14.49,5.94 5.04,5.85 5.04,17.91 0,0.54 0,1.44 0,0.81 -0.09,1.53 l -32.04,0 q 0.54,7.29 4.23,11.07 3.69,3.78 11.52,3.78 4.41,0 7.38,-0.72 3.06,-0.81 4.59,-1.53 l 1.17,7.02 q -1.53,0.81 -5.4,1.71 -3.78,0.9 -8.64,0.9 -6.12,0 -10.62,-1.8 -4.41,-1.89 -7.29,-5.13 -2.88,-3.24 -4.32,-7.65 -1.35,-4.5 -1.35,-9.81 z m 32.13,-4.59 q 0.09,-5.67 -2.88,-9.27 -2.88,-3.69 -8.01,-3.69 -2.88,0 -5.13,1.17 -2.16,1.08 -3.69,2.88 -1.53,1.8 -2.43,4.14 -0.81,2.34 -1.08,4.77 l 23.22,0 z"
         style="font-style:normal;font-variant:normal;font-weight:normal;font-stretch:normal;font-size:90px;font-family:Ubuntu;-inkscape-font-specification:Ubuntu;fill:#ffffff"
         id="path4419"
         inkscape:connector-curvature="0" />
      <path
         d="m 492.88039,408.80311 q 1.08,0 2.43,0.18 1.44,0.09 2.79,0.36 1.35,0.18 2.43,0.45 1.17,0.18 1.71,0.36 l -1.44,7.29 q -0.99,-0.36 -3.33,-0.81 -2.25,-0.54 -5.85,-0.54 -2.34,0 -4.68,0.54 -2.25,0.45 -2.97,0.63 l 0,39.33 -8.37,0 0,-44.82 q 2.97,-1.08 7.38,-1.98 4.41,-0.99 9.9,-0.99 z"
         style="font-style:normal;font-variant:normal;font-weight:normal;font-stretch:normal;font-size:90px;font-family:Ubuntu;-inkscape-font-specification:Ubuntu;fill:#ffffff"
         id="path4421"
         inkscape:connector-curvature="0" />
      <path
         d="m 521.29508,450.56311 q 5.13,0 7.56,-1.35 2.52,-1.35 2.52,-4.32 0,-3.06 -2.43,-4.86 -2.43,-1.8 -8.01,-4.05 -2.7,-1.08 -5.22,-2.16 -2.43,-1.17 -4.23,-2.7 -1.8,-1.53 -2.88,-3.69 -1.08,-2.16 -1.08,-5.31 0,-6.21 4.59,-9.81 4.59,-3.69 12.51,-3.69 1.98,0 3.96,0.27 1.98,0.18 3.69,0.54 1.71,0.27 2.97,0.63 1.35,0.36 2.07,0.63 l -1.53,7.2 q -1.35,-0.72 -4.23,-1.44 -2.88,-0.81 -6.93,-0.81 -3.51,0 -6.12,1.44 -2.61,1.35 -2.61,4.32 0,1.53 0.54,2.7 0.63,1.17 1.8,2.16 1.26,0.9 3.06,1.71 1.8,0.81 4.32,1.71 3.33,1.26 5.94,2.52 2.61,1.17 4.41,2.79 1.89,1.62 2.88,3.96 0.99,2.25 0.99,5.58 0,6.48 -4.86,9.81 -4.77,3.33 -13.68,3.33 -6.21,0 -9.72,-1.08 -3.51,-0.99 -4.77,-1.53 l 1.53,-7.2 q 1.44,0.54 4.59,1.62 3.15,1.08 8.37,1.08 z"
         style="font-style:normal;font-variant:normal;font-weight:normal;font-stretch:normal;font-size:90px;font-family:Ubuntu;-inkscape-font-specification:Ubuntu;fill:#ffffff"
         id="path4423"
         inkscape:connector-curvature="0" />
      <path
         d="m 566.3232,450.56311 q 2.97,0 5.22,-0.09 2.34,-0.18 3.87,-0.54 l 0,-13.95 q -0.9,-0.45 -2.97,-0.72 -1.98,-0.36 -4.86,-0.36 -1.89,0 -4.05,0.27 -2.07,0.27 -3.87,1.17 -1.71,0.81 -2.88,2.34 -1.17,1.44 -1.17,3.87 0,4.5 2.88,6.3 2.88,1.71 7.83,1.71 z m -0.72,-41.94 q 5.04,0 8.46,1.35 3.51,1.26 5.58,3.69 2.16,2.34 3.06,5.67 0.9,3.24 0.9,7.2 l 0,29.25 q -1.08,0.18 -3.06,0.54 -1.89,0.27 -4.32,0.54 -2.43,0.27 -5.31,0.45 -2.79,0.27 -5.58,0.27 -3.96,0 -7.29,-0.81 -3.33,-0.81 -5.76,-2.52 -2.43,-1.8 -3.78,-4.68 -1.35,-2.88 -1.35,-6.93 0,-3.87 1.53,-6.66 1.62,-2.79 4.32,-4.5 2.7,-1.71 6.3,-2.52 3.6,-0.81 7.56,-0.81 1.26,0 2.61,0.18 1.35,0.09 2.52,0.36 1.26,0.18 2.16,0.36 0.9,0.18 1.26,0.27 l 0,-2.34 q 0,-2.07 -0.45,-4.05 -0.45,-2.07 -1.62,-3.6 -1.17,-1.62 -3.24,-2.52 -1.98,-0.99 -5.22,-0.99 -4.14,0 -7.29,0.63 -3.06,0.54 -4.59,1.17 l -0.99,-6.93 q 1.62,-0.72 5.4,-1.35 3.78,-0.72 8.19,-0.72 z"
         style="font-style:normal;font-variant:normal;font-weight:normal;font-stretch:normal;font-size:90px;font-family:Ubuntu;-inkscape-font-specification:Ubuntu;fill:#ffffff"
         id="path4425"
         inkscape:connector-curvature="0" />
      <path
         d="m 611.4568,457.49311 q -7.74,-0.18 -10.98,-3.33 -3.24,-3.15 -3.24,-9.81 l 0,-56.16 8.37,-1.44 0,56.25 q 0,2.07 0.36,3.42 0.36,1.35 1.17,2.16 0.81,0.81 2.16,1.26 1.35,0.36 3.33,0.63 l -1.17,7.02 z"
         style="font-style:normal;font-variant:normal;font-weight:normal;font-stretch:normal;font-size:90px;font-family:Ubuntu;-inkscape-font-specification:Ubuntu;fill:#ffffff"
         id="path4427"
         inkscape:connector-curvature="0" />
      <path
         d="m 677.41836,414.29311 q -3.78,12.06 -7.65,22.32 -3.87,10.26 -7.74,19.98 l -8.73,0 q -4.77,-13.77 -8.46,-29.07 -3.6,-15.3 -6.75,-33.3 l 9.18,0 q 1.26,7.02 2.61,14.04 1.35,7.02 2.79,13.68 1.44,6.57 2.88,12.6 1.44,6.03 2.97,11.16 3.6,-9.45 7.65,-20.7 4.05,-11.34 7.56,-23.4 l 7.56,0 q 3.51,12.06 7.65,23.4 4.14,11.25 7.74,20.7 1.44,-5.04 2.88,-11.07 1.44,-6.03 2.79,-12.6 1.44,-6.66 2.79,-13.68 1.35,-7.11 2.61,-14.13 l 8.91,0 q -3.24,18 -6.93,33.3 -3.6,15.3 -8.28,29.07 l -8.73,0 q -3.96,-9.72 -7.74,-19.98 -3.78,-10.26 -7.56,-22.32 z"
         style="font-style:normal;font-variant:normal;font-weight:normal;font-stretch:normal;font-size:90px;font-family:Ubuntu;-inkscape-font-specification:Ubuntu;fill:#ffffff"
         id="path4429"
         inkscape:connector-curvature="0" />
      <path
         d="m 734.81023,456.59311 -8.37,0 0,-46.8 8.37,0 0,46.8 z m -4.23,-55.26 q -2.25,0 -3.87,-1.44 -1.53,-1.53 -1.53,-4.05 0,-2.52 1.53,-3.96 1.62,-1.53 3.87,-1.53 2.25,0 3.78,1.53 1.62,1.44 1.62,3.96 0,2.52 -1.62,4.05 -1.53,1.44 -3.78,1.44 z"
         style="font-style:normal;font-variant:normal;font-weight:normal;font-stretch:normal;font-size:90px;font-family:Ubuntu;-inkscape-font-specification:Ubuntu;fill:#ffffff"
         id="path4431"
         inkscape:connector-curvature="0" />
      <path
         d="m 749.2918,411.14311 q 2.88,-0.72 7.65,-1.53 4.77,-0.81 10.98,-0.81 5.58,0 9.27,1.62 3.69,1.53 5.85,4.41 2.25,2.79 3.15,6.75 0.9,3.96 0.9,8.73 l 0,26.28 -8.37,0 0,-24.48 q 0,-4.32 -0.63,-7.38 -0.54,-3.06 -1.89,-4.95 -1.35,-1.89 -3.6,-2.7 -2.25,-0.9 -5.58,-0.9 -1.35,0 -2.79,0.09 -1.44,0.09 -2.79,0.27 -1.26,0.09 -2.34,0.27 -0.99,0.18 -1.44,0.27 l 0,39.51 -8.37,0 0,-45.45 z"
         style="font-style:normal;font-variant:normal;font-weight:normal;font-stretch:normal;font-size:90px;font-family:Ubuntu;-inkscape-font-specification:Ubuntu;fill:#ffffff"
         id="path4433"
         inkscape:connector-curvature="0" />
      <path
         d="m 831.21148,419.69311 q -1.53,-1.26 -4.41,-2.43 -2.88,-1.17 -6.3,-1.17 -3.6,0 -6.21,1.35 -2.52,1.26 -4.14,3.6 -1.62,2.25 -2.34,5.4 -0.72,3.15 -0.72,6.75 0,8.19 4.05,12.69 4.05,4.41 10.8,4.41 3.42,0 5.67,-0.27 2.34,-0.36 3.6,-0.72 l 0,-29.61 z m 0,-31.5 8.37,-1.44 0,68.49 q -2.88,0.81 -7.38,1.62 -4.5,0.81 -10.35,0.81 -5.4,0 -9.72,-1.71 -4.32,-1.71 -7.38,-4.86 -3.06,-3.15 -4.77,-7.65 -1.62,-4.59 -1.62,-10.26 0,-5.4 1.35,-9.9 1.44,-4.5 4.14,-7.74 2.7,-3.24 6.57,-5.04 3.96,-1.8 9,-1.8 4.05,0 7.11,1.08 3.15,1.08 4.68,2.07 l 0,-23.67 z"
         style="font-style:normal;font-variant:normal;font-weight:normal;font-stretch:normal;font-size:90px;font-family:Ubuntu;-inkscape-font-specification:Ubuntu;fill:#ffffff"
         id="path4435"
         inkscape:connector-curvature="0" />
      <path
         d="m 895.36742,433.19311 q 0,5.58 -1.62,10.08 -1.62,4.5 -4.59,7.74 -2.88,3.24 -6.93,5.04 -4.05,1.71 -8.82,1.71 -4.77,0 -8.82,-1.71 -4.05,-1.8 -7.02,-5.04 -2.88,-3.24 -4.5,-7.74 -1.62,-4.5 -1.62,-10.08 0,-5.49 1.62,-9.99 1.62,-4.59 4.5,-7.83 2.97,-3.24 7.02,-4.95 4.05,-1.8 8.82,-1.8 4.77,0 8.82,1.8 4.05,1.71 6.93,4.95 2.97,3.24 4.59,7.83 1.62,4.5 1.62,9.99 z m -8.73,0 q 0,-7.92 -3.6,-12.51 -3.51,-4.68 -9.63,-4.68 -6.12,0 -9.72,4.68 -3.51,4.59 -3.51,12.51 0,7.92 3.51,12.6 3.6,4.59 9.72,4.59 6.12,0 9.63,-4.59 3.6,-4.68 3.6,-12.6 z"
         style="font-style:normal;font-variant:normal;font-weight:normal;font-stretch:normal;font-size:90px;font-family:Ubuntu;-inkscape-font-specification:Ubuntu;fill:#ffffff"
         id="path4437"
         inkscape:connector-curvature="0" />
      <path
         d="m 944.16289,456.59311 q -2.52,-6.48 -5.4,-14.76 -2.79,-8.37 -5.13,-17.37 -2.34,9 -5.13,17.37 -2.79,8.28 -5.31,14.76 l -7.29,0 q -4.14,-9.27 -8.1,-21.15 -3.96,-11.88 -7.47,-25.65 l 9,0 q 0.9,4.23 2.16,9.18 1.26,4.95 2.61,9.9 1.44,4.95 2.97,9.54 1.53,4.59 2.88,8.01 1.53,-4.23 2.97,-8.91 1.53,-4.77 2.88,-9.54 1.35,-4.86 2.52,-9.45 1.26,-4.68 2.16,-8.73 l 6.93,0 q 0.81,4.05 1.98,8.73 1.17,4.59 2.52,9.45 1.35,4.77 2.79,9.54 1.53,4.68 3.06,8.91 1.35,-3.42 2.79,-8.01 1.53,-4.59 2.97,-9.54 1.44,-4.95 2.7,-9.9 1.26,-4.95 2.16,-9.18 l 8.64,0 q -3.51,13.77 -7.47,25.65 -3.96,11.88 -8.1,21.15 l -7.29,0 z"
         style="font-style:normal;font-variant:normal;font-weight:normal;font-stretch:normal;font-size:90px;font-family:Ubuntu;-inkscape-font-specification:Ubuntu;fill:#ffffff"
         id="path4439"
         inkscape:connector-curvature="0" />
      <path
         d="m 986.76383,450.56311 q 5.13,0 7.56,-1.35 2.52,-1.35 2.52,-4.32 0,-3.06 -2.43,-4.86 -2.43,-1.8 -8.01,-4.05 -2.7,-1.08 -5.22,-2.16 -2.43,-1.17 -4.23,-2.7 -1.8,-1.53 -2.88,-3.69 -1.08,-2.16 -1.08,-5.31 0,-6.21 4.59,-9.81 4.59,-3.69 12.51,-3.69 1.98,0 3.96,0.27 1.98,0.18 3.69,0.54 1.71,0.27 2.96997,0.63 1.35,0.36 2.07,0.63 l -1.53,7.2 q -1.34997,-0.72 -4.22997,-1.44 -2.88,-0.81 -6.93,-0.81 -3.51,0 -6.12,1.44 -2.61,1.35 -2.61,4.32 0,1.53 0.54,2.7 0.63,1.17 1.8,2.16 1.26,0.9 3.06,1.71 1.8,0.81 4.32,1.71 3.33,1.26 5.94,2.52 2.61,1.17 4.40997,2.79 1.89,1.62 2.88,3.96 0.99,2.25 0.99,5.58 0,6.48 -4.86,9.81 -4.76997,3.33 -13.67997,3.33 -6.21,0 -9.72,-1.08 -3.51,-0.99 -4.77,-1.53 l 1.53,-7.2 q 1.44,0.54 4.59,1.62 3.15,1.08 8.37,1.08 z"
         style="font-style:normal;font-variant:normal;font-weight:normal;font-stretch:normal;font-size:90px;font-family:Ubuntu;-inkscape-font-specification:Ubuntu;fill:#ffffff"
         id="path4441"
         inkscape:connector-curvature="0" />
      <path
         d="m 352.9543,506.09311 q 13.14,0 20.16,5.04 7.11,4.95 7.11,14.85 0,5.4 -1.98,9.27 -1.89,3.78 -5.58,6.21 -3.6,2.34 -8.82,3.42 -5.22,1.08 -11.79,1.08 l -6.93,0 0,23.13 -8.73,0 0,-61.47 q 3.69,-0.9 8.19,-1.17 4.59,-0.36 8.37,-0.36 z m 0.72,7.65 q -5.58,0 -8.55,0.27 l 0,24.48 6.57,0 q 4.5,0 8.1,-0.54 3.6,-0.63 6.03,-1.98 2.52,-1.44 3.87,-3.87 1.35,-2.43 1.35,-6.21 0,-3.6 -1.44,-5.94 -1.35,-2.34 -3.78,-3.69 -2.34,-1.44 -5.49,-1.98 -3.15,-0.54 -6.66,-0.54 z"
         style="font-style:normal;font-variant:normal;font-weight:normal;font-stretch:normal;font-size:90px;font-family:Ubuntu;-inkscape-font-specification:Ubuntu;fill:#ffffff"
         id="path4443"
         inkscape:connector-curvature="0" />
      <path
         d="m 404.56227,569.99311 q -7.74,-0.18 -10.98,-3.33 -3.24,-3.15 -3.24,-9.81 l 0,-56.16 8.37,-1.44 0,56.25 q 0,2.07 0.36,3.42 0.36,1.35 1.17,2.16 0.81,0.81 2.16,1.26 1.35,0.36 3.33,0.63 l -1.17,7.02 z"
         style="font-style:normal;font-variant:normal;font-weight:normal;font-stretch:normal;font-size:90px;font-family:Ubuntu;-inkscape-font-specification:Ubuntu;fill:#ffffff"
         id="path4445"
         inkscape:connector-curvature="0" />
      <path
         d="m 430.97164,563.06311 q 2.97,0 5.22,-0.09 2.34,-0.18 3.87,-0.54 l 0,-13.95 q -0.9,-0.45 -2.97,-0.72 -1.98,-0.36 -4.86,-0.36 -1.89,0 -4.05,0.27 -2.07,0.27 -3.87,1.17 -1.71,0.81 -2.88,2.34 -1.17,1.44 -1.17,3.87 0,4.5 2.88,6.3 2.88,1.71 7.83,1.71 z m -0.72,-41.94 q 5.04,0 8.46,1.35 3.51,1.26 5.58,3.69 2.16,2.34 3.06,5.67 0.9,3.24 0.9,7.2 l 0,29.25 q -1.08,0.18 -3.06,0.54 -1.89,0.27 -4.32,0.54 -2.43,0.27 -5.31,0.45 -2.79,0.27 -5.58,0.27 -3.96,0 -7.29,-0.81 -3.33,-0.81 -5.76,-2.52 -2.43,-1.8 -3.78,-4.68 -1.35,-2.88 -1.35,-6.93 0,-3.87 1.53,-6.66 1.62,-2.79 4.32,-4.5 2.7,-1.71 6.3,-2.52 3.6,-0.81 7.56,-0.81 1.26,0 2.61,0.18 1.35,0.09 2.52,0.36 1.26,0.18 2.16,0.36 0.9,0.18 1.26,0.27 l 0,-2.34 q 0,-2.07 -0.45,-4.05 -0.45,-2.07 -1.62,-3.6 -1.17,-1.62 -3.24,-2.52 -1.98,-0.99 -5.22,-0.99 -4.14,0 -7.29,0.63 -3.06,0.54 -4.59,1.17 l -0.99,-6.93 q 1.62,-0.72 5.4,-1.35 3.78,-0.72 8.19,-0.72 z"
         style="font-style:normal;font-variant:normal;font-weight:normal;font-stretch:normal;font-size:90px;font-family:Ubuntu;-inkscape-font-specification:Ubuntu;fill:#ffffff"
         id="path4447"
         inkscape:connector-curvature="0" />
      <path
         d="m 469.89523,522.29311 17.73,0 0,7.02 -17.73,0 0,21.6 q 0,3.51 0.54,5.85 0.54,2.25 1.62,3.6 1.08,1.26 2.7,1.8 1.62,0.54 3.78,0.54 3.78,0 6.03,-0.81 2.34,-0.9 3.24,-1.26 l 1.62,6.93 q -1.26,0.63 -4.41,1.53 -3.15,0.99 -7.2,0.99 -4.77,0 -7.92,-1.17 -3.06,-1.26 -4.95,-3.69 -1.89,-2.43 -2.7,-5.94 -0.72,-3.6 -0.72,-8.28 l 0,-41.76 8.37,-1.44 0,14.49 z"
         style="font-style:normal;font-variant:normal;font-weight:normal;font-stretch:normal;font-size:90px;font-family:Ubuntu;-inkscape-font-specification:Ubuntu;fill:#ffffff"
         id="path4449"
         inkscape:connector-curvature="0" />
      <path
         d="m 516.54617,499.25311 q 3.69,0 6.3,0.54 2.7,0.54 3.78,0.99 l -1.53,7.2 q -1.08,-0.54 -3.06,-0.99 -1.98,-0.54 -4.86,-0.54 -5.85,0 -8.19,3.24 -2.34,3.15 -2.34,8.55 l 0,4.05 18,0 0,7.02 -18,0 0,39.78 -8.37,0 0,-51.03 q 0,-9 4.41,-13.86 4.41,-4.95 13.86,-4.95 z"
         style="font-style:normal;font-variant:normal;font-weight:normal;font-stretch:normal;font-size:90px;font-family:Ubuntu;-inkscape-font-specification:Ubuntu;fill:#ffffff"
         id="path4451"
         inkscape:connector-curvature="0" />
      <path
         d="m 574.39086,545.69311 q 0,5.58 -1.62,10.08 -1.62,4.5 -4.59,7.74 -2.88,3.24 -6.93,5.04 -4.05,1.71 -8.82,1.71 -4.77,0 -8.82,-1.71 -4.05,-1.8 -7.02,-5.04 -2.88,-3.24 -4.5,-7.74 -1.62,-4.5 -1.62,-10.08 0,-5.49 1.62,-9.99 1.62,-4.59 4.5,-7.83 2.97,-3.24 7.02,-4.95 4.05,-1.8 8.82,-1.8 4.77,0 8.82,1.8 4.05,1.71 6.93,4.95 2.97,3.24 4.59,7.83 1.62,4.5 1.62,9.99 z m -8.73,0 q 0,-7.92 -3.6,-12.51 -3.51,-4.68 -9.63,-4.68 -6.12,0 -9.72,4.68 -3.51,4.59 -3.51,12.51 0,7.92 3.51,12.6 3.6,4.59 9.72,4.59 6.12,0 9.63,-4.59 3.6,-4.68 3.6,-12.6 z"
         style="font-style:normal;font-variant:normal;font-weight:normal;font-stretch:normal;font-size:90px;font-family:Ubuntu;-inkscape-font-specification:Ubuntu;fill:#ffffff"
         id="path4453"
         inkscape:connector-curvature="0" />
      <path
         d="m 603.4468,521.30311 q 1.08,0 2.43,0.18 1.44,0.09 2.79,0.36 1.35,0.18 2.43,0.45 1.17,0.18 1.71,0.36 l -1.44,7.29 q -0.99,-0.36 -3.33,-0.81 -2.25,-0.54 -5.85,-0.54 -2.34,0 -4.68,0.54 -2.25,0.45 -2.97,0.63 l 0,39.33 -8.37,0 0,-44.82 q 2.97,-1.08 7.38,-1.98 4.41,-0.99 9.9,-0.99 z"
         style="font-style:normal;font-variant:normal;font-weight:normal;font-stretch:normal;font-size:90px;font-family:Ubuntu;-inkscape-font-specification:Ubuntu;fill:#ffffff"
         id="path4455"
         inkscape:connector-curvature="0" />
      <path
         d="m 620.97148,523.64311 q 2.88,-0.72 7.56,-1.53 4.77,-0.81 10.98,-0.81 4.5,0 7.56,1.26 3.06,1.17 5.13,3.51 0.63,-0.45 1.98,-1.26 1.35,-0.81 3.33,-1.53 1.98,-0.81 4.41,-1.35 2.43,-0.63 5.22,-0.63 5.4,0 8.82,1.62 3.42,1.53 5.31,4.41 1.98,2.88 2.61,6.84 0.72,3.96 0.72,8.64 l 0,26.28 -8.37,0 0,-24.48 q 0,-4.14 -0.45,-7.11 -0.36,-2.97 -1.53,-4.95 -1.08,-1.98 -3.06,-2.88 -1.89,-0.99 -4.95,-0.99 -4.23,0 -7.02,1.17 -2.7,1.08 -3.69,1.98 0.72,2.34 1.08,5.13 0.36,2.79 0.36,5.85 l 0,26.28 -8.37,0 0,-24.48 q 0,-4.14 -0.45,-7.11 -0.45,-2.97 -1.62,-4.95 -1.08,-1.98 -3.06,-2.88 -1.89,-0.99 -4.86,-0.99 -1.26,0 -2.7,0.09 -1.44,0.09 -2.79,0.27 -1.26,0.09 -2.34,0.27 -1.08,0.18 -1.44,0.27 l 0,39.51 -8.37,0 0,-45.45 z"
         style="font-style:normal;font-variant:normal;font-weight:normal;font-stretch:normal;font-size:90px;font-family:Ubuntu;-inkscape-font-specification:Ubuntu;fill:#ffffff"
         id="path4457"
         inkscape:connector-curvature="0" />
      <path
         d="m 761.4432,569.09311 q -1.53,-4.05 -2.88,-7.92 -1.35,-3.96 -2.79,-8.01 l -28.26,0 -5.67,15.93 -9.09,0 q 3.6,-9.9 6.75,-18.27 3.15,-8.46 6.12,-16.02 3.06,-7.56 6.03,-14.4 2.97,-6.93 6.21,-13.68 l 8.01,0 q 3.24,6.75 6.21,13.68 2.97,6.84 5.94,14.4 3.06,7.56 6.21,16.02 3.15,8.37 6.75,18.27 l -9.54,0 z m -8.19,-23.13 q -2.88,-7.83 -5.76,-15.12 -2.79,-7.38 -5.85,-14.13 -3.15,6.75 -6.03,14.13 -2.79,7.29 -5.58,15.12 l 23.22,0 z"
         style="font-style:normal;font-variant:normal;font-weight:normal;font-stretch:normal;font-size:90px;font-family:Ubuntu;-inkscape-font-specification:Ubuntu;fill:#ffffff"
         id="path4459"
         inkscape:connector-curvature="0" />
      <path
         d="m 811.31305,545.78311 q 0,-8.19 -4.05,-12.6 -4.05,-4.41 -10.8,-4.41 -3.78,0 -5.94,0.27 -2.07,0.27 -3.33,0.63 l 0,29.52 q 1.53,1.26 4.41,2.43 2.88,1.17 6.3,1.17 3.6,0 6.12,-1.26 2.61,-1.35 4.23,-3.6 1.62,-2.34 2.34,-5.4 0.72,-3.15 0.72,-6.75 z m 8.73,0 q 0,5.31 -1.44,9.81 -1.35,4.5 -4.05,7.74 -2.7,3.24 -6.66,5.04 -3.87,1.8 -8.91,1.8 -4.05,0 -7.2,-1.08 -3.06,-1.08 -4.59,-2.07 l 0,18.72 -8.37,0 0,-62.01 q 2.97,-0.72 7.38,-1.53 4.5,-0.9 10.35,-0.9 5.4,0 9.72,1.71 4.32,1.71 7.38,4.86 3.06,3.15 4.68,7.74 1.71,4.5 1.71,10.17 z"
         style="font-style:normal;font-variant:normal;font-weight:normal;font-stretch:normal;font-size:90px;font-family:Ubuntu;-inkscape-font-specification:Ubuntu;fill:#ffffff"
         id="path4461"
         inkscape:connector-curvature="0" />
      <path
         d="m 864.39898,545.78311 q 0,-8.19 -4.05,-12.6 -4.05,-4.41 -10.8,-4.41 -3.78,0 -5.94,0.27 -2.07,0.27 -3.33,0.63 l 0,29.52 q 1.53,1.26 4.41,2.43 2.88,1.17 6.3,1.17 3.6,0 6.12,-1.26 2.61,-1.35 4.23,-3.6 1.62,-2.34 2.34,-5.4 0.72,-3.15 0.72,-6.75 z m 8.73,0 q 0,5.31 -1.44,9.81 -1.35,4.5 -4.05,7.74 -2.7,3.24 -6.66,5.04 -3.87,1.8 -8.91,1.8 -4.05,0 -7.2,-1.08 -3.06,-1.08 -4.59,-2.07 l 0,18.72 -8.37,0 0,-62.01 q 2.97,-0.72 7.38,-1.53 4.5,-0.9 10.35,-0.9 5.4,0 9.72,1.71 4.32,1.71 7.38,4.86 3.06,3.15 4.68,7.74 1.71,4.5 1.71,10.17 z"
         style="font-style:normal;font-variant:normal;font-weight:normal;font-stretch:normal;font-size:90px;font-family:Ubuntu;-inkscape-font-specification:Ubuntu;fill:#ffffff"
         id="path4463"
         inkscape:connector-curvature="0" />
      <path
         d="m 895.88492,563.06311 q 5.13,0 7.56,-1.35 2.52,-1.35 2.52,-4.32 0,-3.06 -2.43,-4.86 -2.43,-1.8 -8.01,-4.05 -2.7,-1.08 -5.22,-2.16 -2.43,-1.17 -4.23,-2.7 -1.8,-1.53 -2.88,-3.69 -1.08,-2.16 -1.08,-5.31 0,-6.21 4.59,-9.81 4.59,-3.69 12.51,-3.69 1.98,0 3.96,0.27 1.98,0.18 3.69,0.54 1.71,0.27 2.97,0.63 1.35,0.36 2.07,0.63 l -1.53,7.2 q -1.35,-0.72 -4.23,-1.44 -2.88,-0.81 -6.93,-0.81 -3.51,0 -6.12,1.44 -2.61,1.35 -2.61,4.32 0,1.53 0.54,2.7 0.63,1.17 1.8,2.16 1.26,0.9 3.06,1.71 1.8,0.81 4.32,1.71 3.33,1.26 5.94,2.52 2.61,1.17 4.41,2.79 1.89,1.62 2.88,3.96 0.99,2.25 0.99,5.58 0,6.48 -4.86,9.81 -4.77,3.33 -13.68,3.33 -6.21,0 -9.72,-1.08 -3.51,-0.99 -4.77,-1.53 l 1.53,-7.2 q 1.44,0.54 4.59,1.62 3.15,1.08 8.37,1.08 z"
         style="font-style:normal;font-variant:normal;font-weight:normal;font-stretch:normal;font-size:90px;font-family:Ubuntu;-inkscape-font-specification:Ubuntu;fill:#ffffff"
         id="path4465"
         inkscape:connector-curvature="0" />
    </g>
  </g>
</svg>
