<?xml version="1.0" encoding="UTF-8" standalone="no"?>
<svg width="500px" height="501px" viewBox="0 0 500 501" version="1.1" xmlns="http://www.w3.org/2000/svg" xmlns:xlink="http://www.w3.org/1999/xlink" xmlns:sketch="http://www.bohemiancoding.com/sketch/ns">
    <!-- Generator: Sketch 3.4.2 (15855) - http://www.bohemiancoding.com/sketch -->
    <title>Slice 1</title>
    <desc>Created with Sketch.</desc>
    <defs></defs>
    <g id="Page-1" stroke="none" stroke-width="1" fill="none" fill-rule="evenodd" sketch:type="MSPage">
        <g id="pound" sketch:type="MSLayerGroup">
            <g id="layer3" fill="#F6F6F6" sketch:type="MSShapeGroup">
                <rect id="rect4243" x="0" y="0.9643375" width="500" height="500"></rect>
            </g>
            <g id="layer2" transform="translate(40.000000, 42.000000)" fill="#F6F6F6" sketch:type="MSShapeGroup">
                <path d="M60,0 L60,60 L0,60 L0,360 L60,360 L60,420 L360,420 L360,360 L420,360 L420,60 L360,60 L360,0 L60,0 L60,0 Z M120,120 L300,120 L300,180 L120,180 L120,120 L120,120 Z M120,240 L300,240 L300,300 L120,300 L120,240 L120,240 Z" id="rect4219"></path>
            </g>
            <g id="layer1" transform="translate(100.000000, 101.637840)" fill="#3C8A3F" sketch:type="MSShapeGroup">
                <g id="g5224" transform="translate(0.000052, 0.137159)">
                    <rect id="rect5212" x="59.999978" y="0.224999918" width="59.999978" height="299.99989"></rect>
                    <rect id="rect5218" x="179.999934" y="0.225107917" width="59.999978" height="299.99989"></rect>
                    <rect id="rect5220" transform="translate(149.999999, 90.225039) rotate(90.000000) translate(-149.999999, -90.225039) " x="120.00001" y="-59.7749061" width="59.999978" height="299.99989"></rect>
                    <rect id="rect5222" transform="translate(149.999891, 210.224995) rotate(90.000000) translate(-149.999891, -210.224995) " x="119.999902" y="60.2250499" width="59.999978" height="299.99989"></rect>
                </g>
            </g>
        </g>
    </g>
</svg>