<?xml version="1.0" encoding="UTF-8" standalone="no"?>
<!-- Created with Inkscape (http://www.inkscape.org/) -->

<svg
   xmlns:dc="http://purl.org/dc/elements/1.1/"
   xmlns:cc="http://creativecommons.org/ns#"
   xmlns:rdf="http://www.w3.org/1999/02/22-rdf-syntax-ns#"
   xmlns:svg="http://www.w3.org/2000/svg"
   xmlns="http://www.w3.org/2000/svg"
   xmlns:sodipodi="http://sodipodi.sourceforge.net/DTD/sodipodi-0.dtd"
   xmlns:inkscape="http://www.inkscape.org/namespaces/inkscape"
   width="1200"
   height="630"
   viewBox="0 0 1200.0001 630.00001"
   id="svg2"
   version="1.1"
   inkscape:version="0.91 r13725"
   sodipodi:docname="featured.svg">
  <defs
     id="defs4" />
  <sodipodi:namedview
     id="base"
     pagecolor="#ffffff"
     bordercolor="#666666"
     borderopacity="1.0"
     inkscape:pageopacity="0.0"
     inkscape:pageshadow="2"
     inkscape:zoom="0.49497475"
     inkscape:cx="579.1022"
     inkscape:cy="254.57273"
     inkscape:document-units="px"
     inkscape:current-layer="layer1"
     showgrid="false"
     units="px"
     inkscape:window-width="1366"
     inkscape:window-height="705"
     inkscape:window-x="1592"
     inkscape:window-y="62"
     inkscape:window-maximized="1" />
  <metadata
     id="metadata7">
    <rdf:RDF>
      <cc:Work
         rdf:about="">
        <dc:format>image/svg+xml</dc:format>
        <dc:type
           rdf:resource="http://purl.org/dc/dcmitype/StillImage" />
        <dc:title></dc:title>
      </cc:Work>
    </rdf:RDF>
  </metadata>
  <g
     inkscape:label="Capa 1"
     inkscape:groupmode="layer"
     id="layer1"
     transform="translate(0,-422.36232)">
    <rect
       style="fill:#002b00"
       id="rect3336"
       width="125.99999"
       height="1200.0001"
       x="-1052.3623"
       y="0"
       transform="matrix(0,-1,1,0,0,0)" />
    <rect
       y="0"
       x="-926.3623"
       height="1200.0001"
       width="125.99999"
       id="rect3340"
       style="fill:#005500"
       transform="matrix(0,-1,1,0,0,0)" />
    <rect
       style="fill:#008000"
       id="rect3342"
       width="125.99999"
       height="1200.0001"
       x="-800.36237"
       y="0"
       transform="matrix(0,-1,1,0,0,0)" />
    <rect
       y="0"
       x="-674.3623"
       height="1200.0001"
       width="125.99999"
       id="rect3344"
       style="fill:#00aa00"
       transform="matrix(0,-1,1,0,0,0)" />
    <rect
       style="fill:#00d400"
       id="rect3346"
       width="125.99999"
       height="1200.0001"
       x="-548.36237"
       y="0"
       transform="matrix(0,-1,1,0,0,0)" />
    <rect
       y="0"
       x="-1052.3623"
       height="1200.0001"
       width="125.99999"
       id="rect3348"
       style="fill:#00112b"
       transform="matrix(0,-1,1,0,0,0)" />
    <rect
       style="fill:#002255"
       id="rect3350"
       width="125.99999"
       height="1200.0001"
       x="-926.3623"
       y="0"
       transform="matrix(0,-1,1,0,0,0)" />
    <rect
       y="0"
       x="-800.36237"
       height="1200.0001"
       width="125.99999"
       id="rect3352"
       style="fill:#003380"
       transform="matrix(0,-1,1,0,0,0)" />
    <rect
       style="fill:#0044aa"
       id="rect3354"
       width="125.99999"
       height="1200.0001"
       x="-674.3623"
       y="0"
       transform="matrix(0,-1,1,0,0,0)" />
    <rect
       y="0"
       x="-548.36237"
       height="1200.0001"
       width="125.99999"
       id="rect3356"
       style="fill:#0055d4"
       transform="matrix(0,-1,1,0,0,0)" />
    <path
       id="path3360"
       d="m 1145.4279,997.81503 q 0,-16.6451 -11.8533,-28.49827 -11.8532,-11.85335 -28.4982,-11.85335 -16.6451,0 -28.4983,11.85335 -11.8533,11.85317 -11.8533,28.49827 0,16.64497 11.8533,28.49827 11.8532,11.8533 28.4983,11.8533 16.645,0 28.4982,-11.8533 11.8533,-11.8533 11.8533,-28.49827 z m 104.914,-80.70323 0,-355.09328 q 0,-6.55711 -4.7918,-11.34886 -4.7917,-4.79175 -11.3488,-4.79175 l -258.24981,0 q -6.55713,0 -11.34886,4.79175 -4.79175,4.79175 -4.79175,11.34886 l 0,355.09328 q 0,6.55723 4.79175,11.34882 4.79173,4.79196 11.34886,4.79196 l 258.24981,0 q 6.5571,0 11.3488,-4.79196 4.7918,-4.79159 4.7918,-11.34882 z m -96.8437,-427.72602 q 0,-8.0703 -8.0703,-8.0703 l -80.7031,0 q -8.0702,0 -8.0702,8.0703 0,8.0703 8.0702,8.0703 l 80.7031,0 q 8.0703,0 8.0703,-8.0703 z m 145.2655,-8.0703 0,516.49955 q 0,26.22837 -19.1669,45.39547 -19.167,19.167 -45.3955,19.167 l -258.24981,0 q -26.22848,0 -45.39546,-19.167 -19.16699,-19.1671 -19.16699,-45.39547 l 0,-516.49955 q 0,-26.22849 19.16699,-45.39548 19.16698,-19.16696 45.39546,-19.16696 l 258.24981,0 q 26.2285,0 45.3955,19.16696 19.1669,19.16699 19.1669,45.39548 z"
       inkscape:connector-curvature="0"
       style="fill:#ffffff" />
  </g>
</svg>
